<?xml version="1.0" encoding="UTF-8" standalone="no"?>
<!-- Generated by Plot Library -->
<svg width="3000" height="2000" viewBox="0 0 3000 2000" xmlns="http://www.w3.org/2000/svg" xmlns:xlink="http://www.w3.org/1999/xlink">
  <title>Plot</title>
  <desc>Generated plot with axes, grid, and data points.</desc>
  <style>
    .grid-line { stroke: #ccc; stroke-width: 0.5; }
    .axis-line { stroke: #000; stroke-width: 1; }
    .data-point { fill: #0074D9; }
  </style>
  <line x1="100" y1="100" x2="100" y2="1900" stroke="rgb(220,220,220)" stroke-width="2.5" />
  <line x1="300" y1="100" x2="300" y2="1900" stroke="rgb(220,220,220)" stroke-width="2.5" />
  <line x1="500" y1="100" x2="500" y2="1900" stroke="rgb(220,220,220)" stroke-width="2.5" />
  <line x1="700" y1="100" x2="700" y2="1900" stroke="rgb(220,220,220)" stroke-width="2.5" />
  <line x1="900" y1="100" x2="900" y2="1900" stroke="rgb(220,220,220)" stroke-width="2.5" />
  <line x1="1100" y1="100" x2="1100" y2="1900" stroke="rgb(220,220,220)" stroke-width="2.5" />
  <line x1="1300" y1="100" x2="1300" y2="1900" stroke="rgb(220,220,220)" stroke-width="2.5" />
  <line x1="1500" y1="100" x2="1500" y2="1900" stroke="rgb(220,220,220)" stroke-width="2.5" />
  <line x1="1700" y1="100" x2="1700" y2="1900" stroke="rgb(220,220,220)" stroke-width="2.5" />
  <line x1="1900" y1="100" x2="1900" y2="1900" stroke="rgb(220,220,220)" stroke-width="2.5" />
  <line x1="2100" y1="100" x2="2100" y2="1900" stroke="rgb(220,220,220)" stroke-width="2.5" />
  <line x1="2300" y1="100" x2="2300" y2="1900" stroke="rgb(220,220,220)" stroke-width="2.5" />
  <line x1="2500" y1="100" x2="2500" y2="1900" stroke="rgb(220,220,220)" stroke-width="2.5" />
  <line x1="2700" y1="100" x2="2700" y2="1900" stroke="rgb(220,220,220)" stroke-width="2.5" />
  <line x1="2900" y1="100" x2="2900" y2="1900" stroke="rgb(220,220,220)" stroke-width="2.5" />
  <line x1="100" y1="1800" x2="2900" y2="1800" stroke="rgb(220,220,220)" stroke-width="2.5" />
  <line x1="100" y1="1600" x2="2900" y2="1600" stroke="rgb(220,220,220)" stroke-width="2.5" />
  <line x1="100" y1="1400" x2="2900" y2="1400" stroke="rgb(220,220,220)" stroke-width="2.5" />
  <line x1="100" y1="1200" x2="2900" y2="1200" stroke="rgb(220,220,220)" stroke-width="2.5" />
  <line x1="100" y1="1000" x2="2900" y2="1000" stroke="rgb(220,220,220)" stroke-width="2.5" />
  <line x1="100" y1="800" x2="2900" y2="800" stroke="rgb(220,220,220)" stroke-width="2.5" />
  <line x1="100" y1="600" x2="2900" y2="600" stroke="rgb(220,220,220)" stroke-width="2.5" />
  <line x1="100" y1="400" x2="2900" y2="400" stroke="rgb(220,220,220)" stroke-width="2.5" />
  <line x1="100" y1="200" x2="2900" y2="200" stroke="rgb(220,220,220)" stroke-width="2.5" />
  <line x1="100" y1="1900" x2="2900" y2="1900" stroke="rgb(0,0,0)" stroke-width="3" />
  <line x1="100" y1="1900" x2="100" y2="1906" stroke="rgb(0,0,0)" stroke-width="3" />
  <text x="58" y="1941" font-size="20" fill="rgb(0,0,0)">-10.50</text>
  <line x1="233" y1="1900" x2="233" y2="1906" stroke="rgb(0,0,0)" stroke-width="3" />
  <text x="198" y="1941" font-size="20" fill="rgb(0,0,0)">-9.50</text>
  <line x1="366" y1="1900" x2="366" y2="1906" stroke="rgb(0,0,0)" stroke-width="3" />
  <text x="331" y="1941" font-size="20" fill="rgb(0,0,0)">-8.50</text>
  <line x1="500" y1="1900" x2="500" y2="1906" stroke="rgb(0,0,0)" stroke-width="3" />
  <text x="465" y="1941" font-size="20" fill="rgb(0,0,0)">-7.50</text>
  <line x1="633" y1="1900" x2="633" y2="1906" stroke="rgb(0,0,0)" stroke-width="3" />
  <text x="598" y="1941" font-size="20" fill="rgb(0,0,0)">-6.50</text>
  <line x1="766" y1="1900" x2="766" y2="1906" stroke="rgb(0,0,0)" stroke-width="3" />
  <text x="731" y="1941" font-size="20" fill="rgb(0,0,0)">-5.50</text>
  <line x1="900" y1="1900" x2="900" y2="1906" stroke="rgb(0,0,0)" stroke-width="3" />
  <text x="865" y="1941" font-size="20" fill="rgb(0,0,0)">-4.50</text>
  <line x1="1033" y1="1900" x2="1033" y2="1906" stroke="rgb(0,0,0)" stroke-width="3" />
  <text x="998" y="1941" font-size="20" fill="rgb(0,0,0)">-3.50</text>
  <line x1="1166" y1="1900" x2="1166" y2="1906" stroke="rgb(0,0,0)" stroke-width="3" />
  <text x="1131" y="1941" font-size="20" fill="rgb(0,0,0)">-2.50</text>
  <line x1="1300" y1="1900" x2="1300" y2="1906" stroke="rgb(0,0,0)" stroke-width="3" />
  <text x="1265" y="1941" font-size="20" fill="rgb(0,0,0)">-1.50</text>
  <line x1="1433" y1="1900" x2="1433" y2="1906" stroke="rgb(0,0,0)" stroke-width="3" />
  <text x="1398" y="1941" font-size="20" fill="rgb(0,0,0)">-0.50</text>
  <line x1="1566" y1="1900" x2="1566" y2="1906" stroke="rgb(0,0,0)" stroke-width="3" />
  <text x="1538" y="1941" font-size="20" fill="rgb(0,0,0)">0.50</text>
  <line x1="1700" y1="1900" x2="1700" y2="1906" stroke="rgb(0,0,0)" stroke-width="3" />
  <text x="1672" y="1941" font-size="20" fill="rgb(0,0,0)">1.50</text>
  <line x1="1833" y1="1900" x2="1833" y2="1906" stroke="rgb(0,0,0)" stroke-width="3" />
  <text x="1805" y="1941" font-size="20" fill="rgb(0,0,0)">2.50</text>
  <line x1="1966" y1="1900" x2="1966" y2="1906" stroke="rgb(0,0,0)" stroke-width="3" />
  <text x="1938" y="1941" font-size="20" fill="rgb(0,0,0)">3.50</text>
  <line x1="2100" y1="1900" x2="2100" y2="1906" stroke="rgb(0,0,0)" stroke-width="3" />
  <text x="2072" y="1941" font-size="20" fill="rgb(0,0,0)">4.50</text>
  <line x1="2233" y1="1900" x2="2233" y2="1906" stroke="rgb(0,0,0)" stroke-width="3" />
  <text x="2205" y="1941" font-size="20" fill="rgb(0,0,0)">5.50</text>
  <line x1="2366" y1="1900" x2="2366" y2="1906" stroke="rgb(0,0,0)" stroke-width="3" />
  <text x="2338" y="1941" font-size="20" fill="rgb(0,0,0)">6.50</text>
  <line x1="2500" y1="1900" x2="2500" y2="1906" stroke="rgb(0,0,0)" stroke-width="3" />
  <text x="2472" y="1941" font-size="20" fill="rgb(0,0,0)">7.50</text>
  <line x1="2633" y1="1900" x2="2633" y2="1906" stroke="rgb(0,0,0)" stroke-width="3" />
  <text x="2605" y="1941" font-size="20" fill="rgb(0,0,0)">8.50</text>
  <line x1="2766" y1="1900" x2="2766" y2="1906" stroke="rgb(0,0,0)" stroke-width="3" />
  <text x="2738" y="1941" font-size="20" fill="rgb(0,0,0)">9.50</text>
  <line x1="2900" y1="1900" x2="2900" y2="1906" stroke="rgb(0,0,0)" stroke-width="3" />
  <text x="2865" y="1941" font-size="20" fill="rgb(0,0,0)">10.50</text>
  <text x="1444" y="1997" font-size="24" fill="rgb(0,0,0)">Time (s)</text>
  <line x1="100" y1="100" x2="100" y2="1900" stroke="rgb(0,0,0)" stroke-width="3" />
  <line x1="100" y1="1900" x2="94" y2="1900" stroke="rgb(0,0,0)" stroke-width="3" />
  <text x="-1" y="1909" font-size="20" fill="rgb(0,0,0)">-0.75</text>
  <line x1="100" y1="1660" x2="94" y2="1660" stroke="rgb(0,0,0)" stroke-width="3" />
  <text x="-1" y="1669" font-size="20" fill="rgb(0,0,0)">-0.55</text>
  <line x1="100" y1="1420" x2="94" y2="1420" stroke="rgb(0,0,0)" stroke-width="3" />
  <text x="-1" y="1429" font-size="20" fill="rgb(0,0,0)">-0.35</text>
  <line x1="100" y1="1180" x2="94" y2="1180" stroke="rgb(0,0,0)" stroke-width="3" />
  <text x="-1" y="1189" font-size="20" fill="rgb(0,0,0)">-0.15</text>
  <line x1="100" y1="940" x2="94" y2="940" stroke="rgb(0,0,0)" stroke-width="3" />
  <text x="13" y="949" font-size="20" fill="rgb(0,0,0)">0.05</text>
  <line x1="100" y1="699" x2="94" y2="699" stroke="rgb(0,0,0)" stroke-width="3" />
  <text x="13" y="708" font-size="20" fill="rgb(0,0,0)">0.25</text>
  <line x1="100" y1="459" x2="94" y2="459" stroke="rgb(0,0,0)" stroke-width="3" />
  <text x="13" y="468" font-size="20" fill="rgb(0,0,0)">0.45</text>
  <line x1="100" y1="220" x2="94" y2="220" stroke="rgb(0,0,0)" stroke-width="3" />
  <text x="13" y="229" font-size="20" fill="rgb(0,0,0)">0.65</text>
  <text x="25" y="1063" font-size="24" fill="rgb(0,0,0)">Amplitude</text>
  <path d="M 166.667 604.041 L 169.336 616.731 L 172.005 629.55 L 174.675 642.494 L 177.344 655.557 L 180.013 668.733 L 182.683 682.015 L 185.352 695.401 L 188.021 708.881 L 190.691 722.453 L 193.36 736.108 L 196.029 749.842 L 198.699 763.649 L 201.368 777.523 L 204.037 791.458 L 206.707 805.448 L 209.376 819.487 L 212.045 833.57 L 214.715 847.69 L 217.384 861.842 L 220.053 876.018 L 222.723 890.215 L 225.392 904.425 L 228.061 918.643 L 230.731 932.862 L 233.4 947.078 L 236.069 961.284 L 238.739 975.474 L 241.408 989.641 L 244.077 1003.78 L 246.747 1017.89 L 249.416 1031.96 L 252.085 1045.98 L 254.755 1059.95 L 257.424 1073.87 L 260.093 1087.72 L 262.763 1101.51 L 265.432 1115.22 L 268.101 1128.85 L 270.771 1142.4 L 273.44 1155.86 L 276.109 1169.23 L 278.779 1182.49 L 281.448 1195.65 L 284.118 1208.7 L 286.787 1221.63 L 289.456 1234.43 L 292.125 1247.12 L 294.795 1259.67 L 297.464 1272.08 L 300.134 1284.36 L 302.803 1296.48 L 305.472 1308.46 L 308.141 1320.28 L 310.811 1331.94 L 313.48 1343.44 L 316.15 1354.76 L 318.819 1365.92 L 321.488 1376.89 L 324.157 1387.69 L 326.827 1398.3 L 329.496 1408.71 L 332.166 1418.94 L 334.835 1428.97 L 337.504 1438.79 L 340.173 1448.41 L 342.843 1457.83 L 345.512 1467.03 L 348.182 1476.01 L 350.851 1484.78 L 353.52 1493.33 L 356.189 1501.65 L 358.859 1509.74 L 361.528 1517.61 L 364.198 1525.24 L 366.867 1532.63 L 369.536 1539.79 L 372.205 1546.71 L 374.875 1553.38 L 377.544 1559.81 L 380.214 1565.99 L 382.883 1571.92 L 385.552 1577.6 L 388.221 1583.03 L 390.891 1588.21 L 393.56 1593.12 L 396.23 1597.79 L 398.899 1602.19 L 401.568 1606.34 L 404.238 1610.22 L 406.907 1613.84 L 409.576 1617.2 L 412.246 1620.3 L 414.915 1623.13 L 417.584 1625.7 L 420.254 1628.01 L 422.923 1630.05 L 425.592 1631.82 L 428.262 1633.34 L 430.931 1634.58 L 433.6 1635.56 L 436.27 1636.28 L 438.939 1636.74 L 441.608 1636.93 L 444.278 1636.86 L 446.947 1636.53 L 449.616 1635.94 L 452.286 1635.09 L 454.955 1633.98 L 457.624 1632.61 L 460.294 1630.99 L 462.963 1629.11 L 465.632 1626.99 L 468.302 1624.61 L 470.971 1621.98 L 473.64 1619.1 L 476.31 1615.98 L 478.979 1612.62 L 481.648 1609.01 L 484.318 1605.17 L 486.987 1601.09 L 489.656 1596.77 L 492.326 1592.23 L 494.995 1587.46 L 497.664 1582.46 L 500.334 1577.24 L 503.003 1571.8 L 505.672 1566.14 L 508.342 1560.27 L 511.011 1554.19 L 513.68 1547.9 L 516.35 1541.41 L 519.019 1534.72 L 521.688 1527.83 L 524.358 1520.75 L 527.027 1513.48 L 529.696 1506.02 L 532.366 1498.39 L 535.035 1490.57 L 537.704 1482.59 L 540.374 1474.43 L 543.043 1466.11 L 545.712 1457.63 L 548.382 1448.99 L 551.051 1440.2 L 553.72 1431.26 L 556.39 1422.17 L 559.059 1412.95 L 561.728 1403.6 L 564.398 1394.11 L 567.067 1384.5 L 569.736 1374.76 L 572.406 1364.92 L 575.075 1354.96 L 577.744 1344.89 L 580.414 1334.72 L 583.083 1324.46 L 585.752 1314.1 L 588.422 1303.66 L 591.091 1293.13 L 593.76 1282.53 L 596.43 1271.86 L 599.099 1261.12 L 601.768 1250.31 L 604.438 1239.45 L 607.107 1228.54 L 609.776 1217.58 L 612.446 1206.58 L 615.115 1195.54 L 617.784 1184.47 L 620.454 1173.37 L 623.123 1162.25 L 625.792 1151.12 L 628.462 1139.97 L 631.131 1128.82 L 633.8 1117.66 L 636.47 1106.51 L 639.139 1095.37 L 641.808 1084.24 L 644.478 1073.13 L 647.147 1062.04 L 649.816 1050.98 L 652.486 1039.95 L 655.155 1028.96 L 657.824 1018.01 L 660.494 1007.11 L 663.163 996.262 L 665.832 985.47 L 668.502 974.74 L 671.171 964.074 L 673.84 953.48 L 676.51 942.96 L 679.179 932.519 L 681.849 922.161 L 684.518 911.892 L 687.187 901.715 L 689.857 891.635 L 692.526 881.654 L 695.195 871.779 L 697.865 862.012 L 700.534 852.358 L 703.203 842.82 L 705.873 833.403 L 708.542 824.11 L 711.211 814.944 L 713.881 805.91 L 716.55 797.011 L 719.219 788.25 L 721.889 779.63 L 724.558 771.156 L 727.227 762.829 L 729.897 754.654 L 732.566 746.633 L 735.235 738.769 L 737.905 731.065 L 740.574 723.524 L 743.243 716.149 L 745.913 708.941 L 748.582 701.904 L 751.251 695.04 L 753.921 688.351 L 756.59 681.84 L 759.259 675.508 L 761.929 669.358 L 764.598 663.391 L 767.267 657.609 L 769.937 652.014 L 772.606 646.608 L 775.275 641.392 L 777.945 636.368 L 780.614 631.536 L 783.283 626.898 L 785.953 622.455 L 788.622 618.209 L 791.291 614.159 L 793.961 610.307 L 796.63 606.654 L 799.299 603.199 L 801.969 599.945 L 804.638 596.89 L 807.307 594.035 L 809.977 591.38 L 812.646 588.926 L 815.315 586.673 L 817.985 584.619 L 820.654 582.766 L 823.323 581.112 L 825.993 579.657 L 828.662 578.401 L 831.331 577.342 L 834.001 576.481 L 836.67 575.816 L 839.339 575.346 L 842.009 575.071 L 844.678 574.989 L 847.347 575.099 L 850.017 575.399 L 852.686 575.888 L 855.355 576.565 L 858.025 577.428 L 860.694 578.475 L 863.363 579.704 L 866.033 581.113 L 868.702 582.701 L 871.371 584.466 L 874.041 586.405 L 876.71 588.515 L 879.379 590.795 L 882.049 593.242 L 884.718 595.854 L 887.387 598.628 L 890.057 601.562 L 892.726 604.652 L 895.395 607.896 L 898.065 611.291 L 900.734 614.834 L 903.403 618.522 L 906.073 622.351 L 908.742 626.32 L 911.411 630.424 L 914.081 634.66 L 916.75 639.026 L 919.419 643.516 L 922.089 648.129 L 924.758 652.86 L 927.427 657.707 L 930.097 662.664 L 932.766 667.73 L 935.435 672.899 L 938.105 678.169 L 940.774 683.535 L 943.443 688.994 L 946.113 694.542 L 948.782 700.174 L 951.451 705.888 L 954.121 711.678 L 956.79 717.542 L 959.459 723.475 L 962.129 729.473 L 964.798 735.531 L 967.467 741.647 L 970.137 747.816 L 972.806 754.033 L 975.475 760.296 L 978.145 766.598 L 980.814 772.938 L 983.483 779.309 L 986.153 785.709 L 988.822 792.133 L 991.491 798.578 L 994.161 805.038 L 996.83 811.51 L 999.499 817.99 L 1002.17 824.474 L 1004.84 830.958 L 1007.51 837.437 L 1010.18 843.908 L 1012.85 850.367 L 1015.52 856.81 L 1018.18 863.233 L 1020.85 869.633 L 1023.52 876.004 L 1026.19 882.344 L 1028.86 888.649 L 1031.53 894.915 L 1034.2 901.139 L 1036.87 907.316 L 1039.54 913.444 L 1042.21 919.518 L 1044.88 925.536 L 1047.55 931.494 L 1050.22 937.389 L 1052.89 943.216 L 1055.56 948.974 L 1058.22 954.659 L 1060.89 960.268 L 1063.56 965.798 L 1066.23 971.246 L 1068.9 976.609 L 1071.57 981.884 L 1074.24 987.07 L 1076.91 992.162 L 1079.58 997.159 L 1082.25 1002.06 L 1084.92 1006.86 L 1087.59 1011.55 L 1090.26 1016.15 L 1092.93 1020.63 L 1095.6 1025.01 L 1098.26 1029.27 L 1100.93 1033.43 L 1103.6 1037.46 L 1106.27 1041.39 L 1108.94 1045.19 L 1111.61 1048.88 L 1114.28 1052.45 L 1116.95 1055.9 L 1119.62 1059.22 L 1122.29 1062.42 L 1124.96 1065.5 L 1127.63 1068.45 L 1130.3 1071.28 L 1132.97 1073.98 L 1135.64 1076.55 L 1138.3 1079 L 1140.97 1081.32 L 1143.64 1083.52 L 1146.31 1085.58 L 1148.98 1087.52 L 1151.65 1089.34 L 1154.32 1091.02 L 1156.99 1092.58 L 1159.66 1094.02 L 1162.33 1095.33 L 1165 1096.51 L 1167.67 1097.58 L 1170.34 1098.52 L 1173.01 1099.34 L 1175.68 1100.04 L 1178.34 1100.62 L 1181.01 1101.09 L 1183.68 1101.44 L 1186.35 1101.68 L 1189.02 1101.8 L 1191.69 1101.82 L 1194.36 1101.72 L 1197.03 1101.53 L 1199.7 1101.22 L 1202.37 1100.82 L 1205.04 1100.31 L 1207.71 1099.71 L 1210.38 1099.02 L 1213.05 1098.23 L 1215.72 1097.36 L 1218.39 1096.4 L 1221.05 1095.36 L 1223.72 1094.23 L 1226.39 1093.03 L 1229.06 1091.75 L 1231.73 1090.41 L 1234.4 1088.99 L 1237.07 1087.52 L 1239.74 1085.98 L 1242.41 1084.38 L 1245.08 1082.73 L 1247.75 1081.03 L 1250.42 1079.28 L 1253.09 1077.48 L 1255.76 1075.65 L 1258.43 1073.78 L 1261.09 1071.88 L 1263.76 1069.95 L 1266.43 1067.99 L 1269.1 1066.01 L 1271.77 1064.01 L 1274.44 1062 L 1277.11 1059.98 L 1279.78 1057.95 L 1282.45 1055.91 L 1285.12 1053.88 L 1287.79 1051.85 L 1290.46 1049.83 L 1293.13 1047.81 L 1295.8 1045.81 L 1298.47 1043.83 L 1301.13 1041.87 L 1303.8 1039.93 L 1306.47 1038.02 L 1309.14 1036.14 L 1311.81 1034.29 L 1314.48 1032.47 L 1317.15 1030.69 L 1319.82 1028.96 L 1322.49 1027.26 L 1325.16 1025.61 L 1327.83 1024.01 L 1330.5 1022.45 L 1333.17 1020.95 L 1335.84 1019.5 L 1338.51 1018.1 L 1341.17 1016.76 L 1343.84 1015.47 L 1346.51 1014.24 L 1349.18 1013.06 L 1351.85 1011.95 L 1354.52 1010.89 L 1357.19 1009.89 L 1359.86 1008.95 L 1362.53 1008.06 L 1365.2 1007.23 L 1367.87 1006.46 L 1370.54 1005.75 L 1373.21 1005.09 L 1375.88 1004.48 L 1378.55 1003.92 L 1381.21 1003.41 L 1383.88 1002.95 L 1386.55 1002.53 L 1389.22 1002.16 L 1391.89 1001.83 L 1394.56 1001.53 L 1397.23 1001.27 L 1399.9 1001.05 L 1402.57 1000.85 L 1405.24 1000.69 L 1407.91 1000.55 L 1410.58 1000.43 L 1413.25 1000.33 L 1415.92 1000.25 L 1418.59 1000.19 L 1421.25 1000.14 L 1423.92 1000.1 L 1426.59 1000.07 L 1429.26 1000.05 L 1431.93 1000.03 L 1434.6 1000.02 L 1437.27 1000.01 L 1439.94 1000.01 L 1442.61 1000 L 1445.28 1000 L 1447.95 1000 L 1450.62 1000 L 1453.29 1000 L 1455.96 1000 L 1458.63 1000 L 1461.29 1000 L 1463.96 1000 L 1466.63 1000 L 1469.3 1000 L 1471.97 1000 L 1474.64 1000 L 1477.31 1000 L 1479.98 1000 L 1482.65 1000 L 1485.32 1000 L 1487.99 1000 L 1490.66 1000 L 1493.33 1000 L 1496 1000 L 1498.67 1000 L 1501.33 1000 L 1504 1000 L 1506.67 1000 L 1509.34 1000 L 1512.01 1000 L 1514.68 1000 L 1517.35 1000 L 1520.02 1000 L 1522.69 1000 L 1525.36 1000 L 1528.03 1000 L 1530.7 1000 L 1533.37 1000 L 1536.04 1000 L 1538.71 1000 L 1541.37 1000 L 1544.04 1000 L 1546.71 1000 L 1549.38 999.999 L 1552.05 999.999 L 1554.72 999.998 L 1557.39 999.995 L 1560.06 999.992 L 1562.73 999.987 L 1565.4 999.979 L 1568.07 999.967 L 1570.74 999.951 L 1573.41 999.929 L 1576.08 999.899 L 1578.75 999.859 L 1581.41 999.809 L 1584.08 999.745 L 1586.75 999.666 L 1589.42 999.569 L 1592.09 999.451 L 1594.76 999.311 L 1597.43 999.145 L 1600.1 998.951 L 1602.77 998.727 L 1605.44 998.469 L 1608.11 998.175 L 1610.78 997.843 L 1613.45 997.47 L 1616.12 997.053 L 1618.79 996.592 L 1621.45 996.083 L 1624.12 995.524 L 1626.79 994.915 L 1629.46 994.253 L 1632.13 993.536 L 1634.8 992.765 L 1637.47 991.938 L 1640.14 991.053 L 1642.81 990.111 L 1645.48 989.111 L 1648.15 988.053 L 1650.82 986.937 L 1653.49 985.763 L 1656.16 984.532 L 1658.83 983.244 L 1661.49 981.901 L 1664.16 980.502 L 1666.83 979.05 L 1669.5 977.546 L 1672.17 975.992 L 1674.84 974.388 L 1677.51 972.738 L 1680.18 971.043 L 1682.85 969.306 L 1685.52 967.528 L 1688.19 965.713 L 1690.86 963.863 L 1693.53 961.98 L 1696.2 960.068 L 1698.87 958.13 L 1701.53 956.168 L 1704.2 954.186 L 1706.87 952.186 L 1709.54 950.173 L 1712.21 948.15 L 1714.88 946.12 L 1717.55 944.086 L 1720.22 942.053 L 1722.89 940.023 L 1725.56 938 L 1728.23 935.989 L 1730.9 933.991 L 1733.57 932.012 L 1736.24 930.055 L 1738.91 928.123 L 1741.57 926.221 L 1744.24 924.351 L 1746.91 922.518 L 1749.58 920.725 L 1752.25 918.975 L 1754.92 917.273 L 1757.59 915.621 L 1760.26 914.024 L 1762.93 912.484 L 1765.6 911.006 L 1768.27 909.592 L 1770.94 908.246 L 1773.61 906.97 L 1776.28 905.769 L 1778.95 904.645 L 1781.61 903.601 L 1784.28 902.64 L 1786.95 901.766 L 1789.62 900.98 L 1792.29 900.285 L 1794.96 899.685 L 1797.63 899.182 L 1800.3 898.778 L 1802.97 898.475 L 1805.64 898.276 L 1808.31 898.183 L 1810.98 898.198 L 1813.65 898.323 L 1816.32 898.56 L 1818.99 898.911 L 1821.65 899.377 L 1824.32 899.959 L 1826.99 900.66 L 1829.66 901.481 L 1832.33 902.422 L 1835 903.486 L 1837.67 904.672 L 1840.34 905.982 L 1843.01 907.418 L 1845.68 908.978 L 1848.35 910.664 L 1851.02 912.477 L 1853.69 914.417 L 1856.36 916.483 L 1859.03 918.677 L 1861.7 920.997 L 1864.36 923.445 L 1867.03 926.02 L 1869.7 928.721 L 1872.37 931.548 L 1875.04 934.5 L 1877.71 937.577 L 1880.38 940.779 L 1883.05 944.103 L 1885.72 947.55 L 1888.39 951.117 L 1891.06 954.805 L 1893.73 958.611 L 1896.4 962.535 L 1899.07 966.574 L 1901.73 970.728 L 1904.4 974.993 L 1907.07 979.37 L 1909.74 983.855 L 1912.41 988.446 L 1915.08 993.143 L 1917.75 997.942 L 1920.42 1002.84 L 1923.09 1007.84 L 1925.76 1012.93 L 1928.43 1018.12 L 1931.1 1023.39 L 1933.77 1028.75 L 1936.44 1034.2 L 1939.11 1039.73 L 1941.78 1045.34 L 1944.44 1051.03 L 1947.11 1056.78 L 1949.78 1062.61 L 1952.45 1068.51 L 1955.12 1074.46 L 1957.79 1080.48 L 1960.46 1086.56 L 1963.13 1092.68 L 1965.8 1098.86 L 1968.47 1105.08 L 1971.14 1111.35 L 1973.81 1117.66 L 1976.48 1124 L 1979.15 1130.37 L 1981.82 1136.77 L 1984.48 1143.19 L 1987.15 1149.63 L 1989.82 1156.09 L 1992.49 1162.56 L 1995.16 1169.04 L 1997.83 1175.53 L 2000.5 1182.01 L 2003.17 1188.49 L 2005.84 1194.96 L 2008.51 1201.42 L 2011.18 1207.87 L 2013.85 1214.29 L 2016.52 1220.69 L 2019.19 1227.06 L 2021.86 1233.4 L 2024.52 1239.7 L 2027.19 1245.97 L 2029.86 1252.18 L 2032.53 1258.35 L 2035.2 1264.47 L 2037.87 1270.53 L 2040.54 1276.52 L 2043.21 1282.46 L 2045.88 1288.32 L 2048.55 1294.11 L 2051.22 1299.83 L 2053.89 1305.46 L 2056.56 1311.01 L 2059.23 1316.46 L 2061.9 1321.83 L 2064.56 1327.1 L 2067.23 1332.27 L 2069.9 1337.34 L 2072.57 1342.29 L 2075.24 1347.14 L 2077.91 1351.87 L 2080.58 1356.48 L 2083.25 1360.97 L 2085.92 1365.34 L 2088.59 1369.58 L 2091.26 1373.68 L 2093.93 1377.65 L 2096.6 1381.48 L 2099.27 1385.17 L 2101.94 1388.71 L 2104.6 1392.1 L 2107.27 1395.35 L 2109.94 1398.44 L 2112.61 1401.37 L 2115.28 1404.15 L 2117.95 1406.76 L 2120.62 1409.2 L 2123.29 1411.48 L 2125.96 1413.6 L 2128.63 1415.53 L 2131.3 1417.3 L 2133.97 1418.89 L 2136.64 1420.3 L 2139.31 1421.53 L 2141.98 1422.57 L 2144.64 1423.43 L 2147.31 1424.11 L 2149.98 1424.6 L 2152.65 1424.9 L 2155.32 1425.01 L 2157.99 1424.93 L 2160.66 1424.65 L 2163.33 1424.18 L 2166 1423.52 L 2168.67 1422.66 L 2171.34 1421.6 L 2174.01 1420.34 L 2176.68 1418.89 L 2179.35 1417.23 L 2182.02 1415.38 L 2184.68 1413.33 L 2187.35 1411.07 L 2190.02 1408.62 L 2192.69 1405.97 L 2195.36 1403.11 L 2198.03 1400.06 L 2200.7 1396.8 L 2203.37 1393.35 L 2206.04 1389.69 L 2208.71 1385.84 L 2211.38 1381.79 L 2214.05 1377.54 L 2216.72 1373.1 L 2219.39 1368.46 L 2222.06 1363.63 L 2224.72 1358.61 L 2227.39 1353.39 L 2230.06 1347.99 L 2232.73 1342.39 L 2235.4 1336.61 L 2238.07 1330.64 L 2240.74 1324.49 L 2243.41 1318.16 L 2246.08 1311.65 L 2248.75 1304.96 L 2251.42 1298.1 L 2254.09 1291.06 L 2256.76 1283.85 L 2259.43 1276.48 L 2262.1 1268.94 L 2264.76 1261.23 L 2267.43 1253.37 L 2270.1 1245.35 L 2272.77 1237.17 L 2275.44 1228.84 L 2278.11 1220.37 L 2280.78 1211.75 L 2283.45 1202.99 L 2286.12 1194.09 L 2288.79 1185.06 L 2291.46 1175.89 L 2294.13 1166.6 L 2296.8 1157.18 L 2299.47 1147.64 L 2302.14 1137.99 L 2304.8 1128.22 L 2307.47 1118.35 L 2310.14 1108.37 L 2312.81 1098.29 L 2315.48 1088.11 L 2318.15 1077.84 L 2320.82 1067.48 L 2323.49 1057.04 L 2326.16 1046.52 L 2328.83 1035.93 L 2331.5 1025.26 L 2334.17 1014.53 L 2336.84 1003.74 L 2339.51 992.889 L 2342.18 981.989 L 2344.84 971.041 L 2347.51 960.051 L 2350.18 949.023 L 2352.85 937.962 L 2355.52 926.874 L 2358.19 915.762 L 2360.86 904.632 L 2363.53 893.488 L 2366.2 882.336 L 2368.87 871.181 L 2371.54 860.028 L 2374.21 848.881 L 2376.88 837.746 L 2379.55 826.627 L 2382.22 815.531 L 2384.88 804.46 L 2387.55 793.422 L 2390.22 782.421 L 2392.89 771.461 L 2395.56 760.549 L 2398.23 749.688 L 2400.9 738.885 L 2403.57 728.143 L 2406.24 717.469 L 2408.91 706.867 L 2411.58 696.342 L 2414.25 685.898 L 2416.92 675.542 L 2419.59 665.278 L 2422.26 655.11 L 2424.92 645.044 L 2427.59 635.084 L 2430.26 625.236 L 2432.93 615.503 L 2435.6 605.891 L 2438.27 596.405 L 2440.94 587.048 L 2443.61 577.826 L 2446.28 568.743 L 2448.95 559.803 L 2451.62 551.012 L 2454.29 542.373 L 2456.96 533.89 L 2459.63 525.569 L 2462.3 517.413 L 2464.96 509.426 L 2467.63 501.612 L 2470.3 493.976 L 2472.97 486.521 L 2475.64 479.252 L 2478.31 472.171 L 2480.98 465.283 L 2483.65 458.592 L 2486.32 452.101 L 2488.99 445.813 L 2491.66 439.732 L 2494.33 433.861 L 2497 428.203 L 2499.67 422.763 L 2502.34 417.541 L 2505 412.543 L 2507.67 407.77 L 2510.34 403.226 L 2513.01 398.912 L 2515.68 394.832 L 2518.35 390.989 L 2521.02 387.384 L 2523.69 384.019 L 2526.36 380.898 L 2529.03 378.022 L 2531.7 375.394 L 2534.37 373.014 L 2537.04 370.886 L 2539.71 369.009 L 2542.38 367.387 L 2545.04 366.021 L 2547.71 364.912 L 2550.38 364.061 L 2553.05 363.47 L 2555.72 363.138 L 2558.39 363.069 L 2561.06 363.261 L 2563.73 363.716 L 2566.4 364.435 L 2569.07 365.418 L 2571.74 366.665 L 2574.41 368.176 L 2577.08 369.953 L 2579.75 371.993 L 2582.42 374.299 L 2585.08 376.868 L 2587.75 379.702 L 2590.42 382.799 L 2593.09 386.159 L 2595.76 389.781 L 2598.43 393.665 L 2601.1 397.809 L 2603.77 402.213 L 2606.44 406.875 L 2609.11 411.794 L 2611.78 416.969 L 2614.45 422.398 L 2617.12 428.079 L 2619.79 434.011 L 2622.46 440.193 L 2625.12 446.621 L 2627.79 453.295 L 2630.46 460.21 L 2633.13 467.367 L 2635.8 474.762 L 2638.47 482.393 L 2641.14 490.256 L 2643.81 498.35 L 2646.48 506.671 L 2649.15 515.217 L 2651.82 523.985 L 2654.49 532.971 L 2657.16 542.172 L 2659.83 551.585 L 2662.5 561.206 L 2665.17 571.032 L 2667.83 581.059 L 2670.5 591.285 L 2673.17 601.704 L 2675.84 612.312 L 2678.51 623.107 L 2681.18 634.082 L 2683.85 645.236 L 2686.52 656.563 L 2689.19 668.06 L 2691.86 679.72 L 2694.53 691.541 L 2697.2 703.517 L 2699.87 715.644 L 2702.54 727.917 L 2705.21 740.332 L 2707.87 752.883 L 2710.54 765.565 L 2713.21 778.374 L 2715.88 791.305 L 2718.55 804.351 L 2721.22 817.51 L 2723.89 830.773 L 2726.56 844.138 L 2729.23 857.597 L 2731.9 871.147 L 2734.57 884.78 L 2737.24 898.493 L 2739.91 912.279 L 2742.58 926.133 L 2745.25 940.048 L 2747.91 954.02 L 2750.58 968.043 L 2753.25 982.111 L 2755.92 996.217 L 2758.59 1010.36 L 2761.26 1024.53 L 2763.93 1038.72 L 2766.6 1052.92 L 2769.27 1067.14 L 2771.94 1081.36 L 2774.61 1095.57 L 2777.28 1109.78 L 2779.95 1123.98 L 2782.62 1138.16 L 2785.29 1152.31 L 2787.95 1166.43 L 2790.62 1180.51 L 2793.29 1194.55 L 2795.96 1208.54 L 2798.63 1222.48 L 2801.3 1236.35 L 2803.97 1250.16 L 2806.64 1263.89 L 2809.31 1277.55 L 2811.98 1291.12 L 2814.65 1304.6 L 2817.32 1317.98 L 2819.99 1331.27 L 2822.66 1344.44 L 2825.33 1357.51 L 2827.99 1370.45 L 2830.66 1383.27 L 2833.33 1395.96" stroke="rgb(0,0,255)" stroke-width="5" stroke-linecap="round" stroke-linejoin="round" fill="none" />
  <path d="M 166.667 1250 L 169.336 1252.84 L 172.005 1255.57 L 174.675 1258.19 L 177.344 1260.69 L 180.013 1263.08 L 182.683 1265.36 L 185.352 1267.52 L 188.021 1269.56 L 190.691 1271.49 L 193.36 1273.31 L 196.029 1275 L 198.699 1276.58 L 201.368 1278.04 L 204.037 1279.39 L 206.707 1280.61 L 209.376 1281.72 L 212.045 1282.71 L 214.715 1283.58 L 217.384 1284.33 L 220.053 1284.97 L 222.723 1285.48 L 225.392 1285.88 L 228.061 1286.16 L 230.731 1286.32 L 233.4 1286.36 L 236.069 1286.29 L 238.739 1286.1 L 241.408 1285.79 L 244.077 1285.37 L 246.747 1284.83 L 249.416 1284.17 L 252.085 1283.4 L 254.755 1282.52 L 257.424 1281.53 L 260.093 1280.42 L 262.763 1279.2 L 265.432 1277.87 L 268.101 1276.44 L 270.771 1274.89 L 273.44 1273.24 L 276.109 1271.47 L 278.779 1269.61 L 281.448 1267.64 L 284.118 1265.56 L 286.787 1263.39 L 289.456 1261.11 L 292.125 1258.73 L 294.795 1256.26 L 297.464 1253.69 L 300.134 1251.02 L 302.803 1248.26 L 305.472 1245.41 L 308.141 1242.47 L 310.811 1239.43 L 313.48 1236.31 L 316.15 1233.11 L 318.819 1229.81 L 321.488 1226.44 L 324.157 1222.98 L 326.827 1219.45 L 329.496 1215.84 L 332.166 1212.15 L 334.835 1208.39 L 337.504 1204.56 L 340.173 1200.65 L 342.843 1196.68 L 345.512 1192.64 L 348.182 1188.54 L 350.851 1184.37 L 353.52 1180.15 L 356.189 1175.86 L 358.859 1171.52 L 361.528 1167.13 L 364.198 1162.68 L 366.867 1158.19 L 369.536 1153.64 L 372.205 1149.05 L 374.875 1144.42 L 377.544 1139.74 L 380.214 1135.03 L 382.883 1130.28 L 385.552 1125.49 L 388.221 1120.67 L 390.891 1115.82 L 393.56 1110.95 L 396.23 1106.04 L 398.899 1101.11 L 401.568 1096.16 L 404.238 1091.2 L 406.907 1086.21 L 409.576 1081.21 L 412.246 1076.19 L 414.915 1071.17 L 417.584 1066.14 L 420.254 1061.1 L 422.923 1056.05 L 425.592 1051.01 L 428.262 1045.97 L 430.931 1040.92 L 433.6 1035.89 L 436.27 1030.86 L 438.939 1025.84 L 441.608 1020.83 L 444.278 1015.84 L 446.947 1010.86 L 449.616 1005.9 L 452.286 1000.95 L 454.955 996.035 L 457.624 991.139 L 460.294 986.27 L 462.963 981.429 L 465.632 976.617 L 468.302 971.839 L 470.971 967.094 L 473.64 962.385 L 476.31 957.714 L 478.979 953.082 L 481.648 948.493 L 484.318 943.947 L 486.987 939.447 L 489.656 934.993 L 492.326 930.589 L 494.995 926.235 L 497.664 921.933 L 500.334 917.685 L 503.003 913.494 L 505.672 909.359 L 508.342 905.283 L 511.011 901.267 L 513.68 897.314 L 516.35 893.423 L 519.019 889.598 L 521.688 885.838 L 524.358 882.147 L 527.027 878.524 L 529.696 874.971 L 532.366 871.49 L 535.035 868.081 L 537.704 864.746 L 540.374 861.486 L 543.043 858.302 L 545.712 855.195 L 548.382 852.167 L 551.051 849.217 L 553.72 846.347 L 556.39 843.559 L 559.059 840.852 L 561.728 838.228 L 564.398 835.687 L 567.067 833.23 L 569.736 830.858 L 572.406 828.571 L 575.075 826.37 L 577.744 824.256 L 580.414 822.229 L 583.083 820.29 L 585.752 818.438 L 588.422 816.675 L 591.091 815 L 593.76 813.414 L 596.43 811.918 L 599.099 810.51 L 601.768 809.193 L 604.438 807.965 L 607.107 806.827 L 609.776 805.778 L 612.446 804.819 L 615.115 803.95 L 617.784 803.171 L 620.454 802.481 L 623.123 801.88 L 625.792 801.368 L 628.462 800.945 L 631.131 800.61 L 633.8 800.363 L 636.47 800.204 L 639.139 800.132 L 641.808 800.147 L 644.478 800.248 L 647.147 800.435 L 649.816 800.706 L 652.486 801.063 L 655.155 801.502 L 657.824 802.025 L 660.494 802.63 L 663.163 803.317 L 665.832 804.084 L 668.502 804.931 L 671.171 805.856 L 673.84 806.86 L 676.51 807.94 L 679.179 809.097 L 681.849 810.328 L 684.518 811.633 L 687.187 813.011 L 689.857 814.46 L 692.526 815.98 L 695.195 817.569 L 697.865 819.226 L 700.534 820.95 L 703.203 822.739 L 705.873 824.592 L 708.542 826.508 L 711.211 828.486 L 713.881 830.524 L 716.55 832.62 L 719.219 834.773 L 721.889 836.983 L 724.558 839.246 L 727.227 841.563 L 729.897 843.93 L 732.566 846.348 L 735.235 848.813 L 737.905 851.325 L 740.574 853.883 L 743.243 856.483 L 745.913 859.126 L 748.582 861.808 L 751.251 864.53 L 753.921 867.288 L 756.59 870.081 L 759.259 872.908 L 761.929 875.767 L 764.598 878.656 L 767.267 881.574 L 769.937 884.518 L 772.606 887.488 L 775.275 890.481 L 777.945 893.495 L 780.614 896.53 L 783.283 899.583 L 785.953 902.652 L 788.622 905.737 L 791.291 908.834 L 793.961 911.943 L 796.63 915.061 L 799.299 918.188 L 801.969 921.32 L 804.638 924.458 L 807.307 927.598 L 809.977 930.739 L 812.646 933.881 L 815.315 937.02 L 817.985 940.155 L 820.654 943.285 L 823.323 946.408 L 825.993 949.522 L 828.662 952.627 L 831.331 955.719 L 834.001 958.798 L 836.67 961.863 L 839.339 964.911 L 842.009 967.941 L 844.678 970.952 L 847.347 973.942 L 850.017 976.909 L 852.686 979.853 L 855.355 982.772 L 858.025 985.665 L 860.694 988.529 L 863.363 991.365 L 866.033 994.17 L 868.702 996.943 L 871.371 999.684 L 874.041 1002.39 L 876.71 1005.06 L 879.379 1007.7 L 882.049 1010.29 L 884.718 1012.85 L 887.387 1015.37 L 890.057 1017.84 L 892.726 1020.28 L 895.395 1022.67 L 898.065 1025.02 L 900.734 1027.32 L 903.403 1029.58 L 906.073 1031.79 L 908.742 1033.96 L 911.411 1036.08 L 914.081 1038.14 L 916.75 1040.16 L 919.419 1042.13 L 922.089 1044.05 L 924.758 1045.91 L 927.427 1047.73 L 930.097 1049.49 L 932.766 1051.2 L 935.435 1052.85 L 938.105 1054.45 L 940.774 1056 L 943.443 1057.5 L 946.113 1058.93 L 948.782 1060.32 L 951.451 1061.64 L 954.121 1062.92 L 956.79 1064.13 L 959.459 1065.29 L 962.129 1066.4 L 964.798 1067.45 L 967.467 1068.44 L 970.137 1069.38 L 972.806 1070.26 L 975.475 1071.09 L 978.145 1071.86 L 980.814 1072.58 L 983.483 1073.24 L 986.153 1073.85 L 988.822 1074.4 L 991.491 1074.9 L 994.161 1075.35 L 996.83 1075.74 L 999.499 1076.08 L 1002.17 1076.36 L 1004.84 1076.6 L 1007.51 1076.78 L 1010.18 1076.91 L 1012.85 1077 L 1015.52 1077.03 L 1018.18 1077.02 L 1020.85 1076.95 L 1023.52 1076.84 L 1026.19 1076.68 L 1028.86 1076.48 L 1031.53 1076.23 L 1034.2 1075.94 L 1036.87 1075.61 L 1039.54 1075.23 L 1042.21 1074.81 L 1044.88 1074.35 L 1047.55 1073.85 L 1050.22 1073.31 L 1052.89 1072.74 L 1055.56 1072.13 L 1058.22 1071.48 L 1060.89 1070.8 L 1063.56 1070.08 L 1066.23 1069.34 L 1068.9 1068.56 L 1071.57 1067.75 L 1074.24 1066.92 L 1076.91 1066.05 L 1079.58 1065.16 L 1082.25 1064.25 L 1084.92 1063.31 L 1087.59 1062.34 L 1090.26 1061.36 L 1092.93 1060.35 L 1095.6 1059.33 L 1098.26 1058.29 L 1100.93 1057.23 L 1103.6 1056.15 L 1106.27 1055.07 L 1108.94 1053.96 L 1111.61 1052.85 L 1114.28 1051.73 L 1116.95 1050.59 L 1119.62 1049.45 L 1122.29 1048.3 L 1124.96 1047.15 L 1127.63 1045.99 L 1130.3 1044.83 L 1132.97 1043.66 L 1135.64 1042.49 L 1138.3 1041.33 L 1140.97 1040.16 L 1143.64 1039 L 1146.31 1037.84 L 1148.98 1036.69 L 1151.65 1035.54 L 1154.32 1034.4 L 1156.99 1033.26 L 1159.66 1032.14 L 1162.33 1031.02 L 1165 1029.92 L 1167.67 1028.82 L 1170.34 1027.74 L 1173.01 1026.67 L 1175.68 1025.62 L 1178.34 1024.58 L 1181.01 1023.55 L 1183.68 1022.55 L 1186.35 1021.56 L 1189.02 1020.59 L 1191.69 1019.63 L 1194.36 1018.7 L 1197.03 1017.78 L 1199.7 1016.89 L 1202.37 1016.02 L 1205.04 1015.17 L 1207.71 1014.34 L 1210.38 1013.53 L 1213.05 1012.74 L 1215.72 1011.98 L 1218.39 1011.24 L 1221.05 1010.53 L 1223.72 1009.83 L 1226.39 1009.17 L 1229.06 1008.52 L 1231.73 1007.9 L 1234.4 1007.3 L 1237.07 1006.73 L 1239.74 1006.18 L 1242.41 1005.66 L 1245.08 1005.16 L 1247.75 1004.68 L 1250.42 1004.23 L 1253.09 1003.8 L 1255.76 1003.39 L 1258.43 1003.01 L 1261.09 1002.64 L 1263.76 1002.3 L 1266.43 1001.99 L 1269.1 1001.69 L 1271.77 1001.41 L 1274.44 1001.15 L 1277.11 1000.92 L 1279.78 1000.7 L 1282.45 1000.5 L 1285.12 1000.32 L 1287.79 1000.15 L 1290.46 1000.01 L 1293.13 999.873 L 1295.8 999.756 L 1298.47 999.654 L 1301.13 999.565 L 1303.8 999.489 L 1306.47 999.425 L 1309.14 999.373 L 1311.81 999.332 L 1314.48 999.301 L 1317.15 999.279 L 1319.82 999.265 L 1322.49 999.259 L 1325.16 999.26 L 1327.83 999.268 L 1330.5 999.281 L 1333.17 999.299 L 1335.84 999.321 L 1338.51 999.347 L 1341.17 999.376 L 1343.84 999.408 L 1346.51 999.441 L 1349.18 999.476 L 1351.85 999.511 L 1354.52 999.547 L 1357.19 999.583 L 1359.86 999.618 L 1362.53 999.653 L 1365.2 999.686 L 1367.87 999.719 L 1370.54 999.75 L 1373.21 999.778 L 1375.88 999.806 L 1378.55 999.831 L 1381.21 999.854 L 1383.88 999.875 L 1386.55 999.894 L 1389.22 999.911 L 1391.89 999.926 L 1394.56 999.94 L 1397.23 999.951 L 1399.9 999.961 L 1402.57 999.969 L 1405.24 999.976 L 1407.91 999.982 L 1410.58 999.986 L 1413.25 999.99 L 1415.92 999.993 L 1418.59 999.995 L 1421.25 999.996 L 1423.92 999.998 L 1426.59 999.998 L 1429.26 999.999 L 1431.93 999.999 L 1434.6 1000 L 1437.27 1000 L 1439.94 1000 L 1442.61 1000 L 1445.28 1000 L 1447.95 1000 L 1450.62 1000 L 1453.29 1000 L 1455.96 1000 L 1458.63 1000 L 1461.29 1000 L 1463.96 1000 L 1466.63 1000 L 1469.3 1000 L 1471.97 1000 L 1474.64 1000 L 1477.31 1000 L 1479.98 1000 L 1482.65 1000 L 1485.32 1000 L 1487.99 1000 L 1490.66 1000 L 1493.33 1000 L 1496 1000 L 1498.67 1000 L 1501.33 1000 L 1504 1000 L 1506.67 1000 L 1509.34 1000 L 1512.01 1000 L 1514.68 1000 L 1517.35 1000 L 1520.02 1000 L 1522.69 1000 L 1525.36 1000 L 1528.03 1000 L 1530.7 1000 L 1533.37 1000 L 1536.04 1000 L 1538.71 1000 L 1541.37 1000 L 1544.04 1000 L 1546.71 1000 L 1549.38 1000 L 1552.05 1000 L 1554.72 1000 L 1557.39 1000 L 1560.06 1000 L 1562.73 1000 L 1565.4 1000 L 1568.07 999.999 L 1570.74 999.999 L 1573.41 999.998 L 1576.08 999.998 L 1578.75 999.996 L 1581.41 999.995 L 1584.08 999.993 L 1586.75 999.99 L 1589.42 999.986 L 1592.09 999.982 L 1594.76 999.976 L 1597.43 999.969 L 1600.1 999.961 L 1602.77 999.951 L 1605.44 999.94 L 1608.11 999.926 L 1610.78 999.911 L 1613.45 999.894 L 1616.12 999.875 L 1618.79 999.854 L 1621.45 999.831 L 1624.12 999.806 L 1626.79 999.778 L 1629.46 999.75 L 1632.13 999.719 L 1634.8 999.686 L 1637.47 999.653 L 1640.14 999.618 L 1642.81 999.583 L 1645.48 999.547 L 1648.15 999.511 L 1650.82 999.476 L 1653.49 999.441 L 1656.16 999.408 L 1658.83 999.376 L 1661.49 999.347 L 1664.16 999.321 L 1666.83 999.299 L 1669.5 999.281 L 1672.17 999.268 L 1674.84 999.26 L 1677.51 999.259 L 1680.18 999.265 L 1682.85 999.279 L 1685.52 999.301 L 1688.19 999.332 L 1690.86 999.373 L 1693.53 999.425 L 1696.2 999.489 L 1698.87 999.565 L 1701.53 999.654 L 1704.2 999.756 L 1706.87 999.873 L 1709.54 1000.01 L 1712.21 1000.15 L 1714.88 1000.32 L 1717.55 1000.5 L 1720.22 1000.7 L 1722.89 1000.92 L 1725.56 1001.15 L 1728.23 1001.41 L 1730.9 1001.69 L 1733.57 1001.99 L 1736.24 1002.3 L 1738.91 1002.64 L 1741.57 1003.01 L 1744.24 1003.39 L 1746.91 1003.8 L 1749.58 1004.23 L 1752.25 1004.68 L 1754.92 1005.16 L 1757.59 1005.66 L 1760.26 1006.18 L 1762.93 1006.73 L 1765.6 1007.3 L 1768.27 1007.9 L 1770.94 1008.52 L 1773.61 1009.17 L 1776.28 1009.83 L 1778.95 1010.53 L 1781.61 1011.24 L 1784.28 1011.98 L 1786.95 1012.74 L 1789.62 1013.53 L 1792.29 1014.34 L 1794.96 1015.17 L 1797.63 1016.02 L 1800.3 1016.89 L 1802.97 1017.78 L 1805.64 1018.7 L 1808.31 1019.63 L 1810.98 1020.59 L 1813.65 1021.56 L 1816.32 1022.55 L 1818.99 1023.55 L 1821.65 1024.58 L 1824.32 1025.62 L 1826.99 1026.67 L 1829.66 1027.74 L 1832.33 1028.82 L 1835 1029.92 L 1837.67 1031.02 L 1840.34 1032.14 L 1843.01 1033.26 L 1845.68 1034.4 L 1848.35 1035.54 L 1851.02 1036.69 L 1853.69 1037.84 L 1856.36 1039 L 1859.03 1040.16 L 1861.7 1041.33 L 1864.36 1042.49 L 1867.03 1043.66 L 1869.7 1044.83 L 1872.37 1045.99 L 1875.04 1047.15 L 1877.71 1048.3 L 1880.38 1049.45 L 1883.05 1050.59 L 1885.72 1051.73 L 1888.39 1052.85 L 1891.06 1053.96 L 1893.73 1055.07 L 1896.4 1056.15 L 1899.07 1057.23 L 1901.73 1058.29 L 1904.4 1059.33 L 1907.07 1060.35 L 1909.74 1061.36 L 1912.41 1062.34 L 1915.08 1063.31 L 1917.75 1064.25 L 1920.42 1065.16 L 1923.09 1066.05 L 1925.76 1066.92 L 1928.43 1067.75 L 1931.1 1068.56 L 1933.77 1069.34 L 1936.44 1070.08 L 1939.11 1070.8 L 1941.78 1071.48 L 1944.44 1072.13 L 1947.11 1072.74 L 1949.78 1073.31 L 1952.45 1073.85 L 1955.12 1074.35 L 1957.79 1074.81 L 1960.46 1075.23 L 1963.13 1075.61 L 1965.8 1075.94 L 1968.47 1076.23 L 1971.14 1076.48 L 1973.81 1076.68 L 1976.48 1076.84 L 1979.15 1076.95 L 1981.82 1077.02 L 1984.48 1077.03 L 1987.15 1077 L 1989.82 1076.91 L 1992.49 1076.78 L 1995.16 1076.6 L 1997.83 1076.36 L 2000.5 1076.08 L 2003.17 1075.74 L 2005.84 1075.35 L 2008.51 1074.9 L 2011.18 1074.4 L 2013.85 1073.85 L 2016.52 1073.24 L 2019.19 1072.58 L 2021.86 1071.86 L 2024.52 1071.09 L 2027.19 1070.26 L 2029.86 1069.38 L 2032.53 1068.44 L 2035.2 1067.45 L 2037.87 1066.4 L 2040.54 1065.3 L 2043.21 1064.13 L 2045.88 1062.92 L 2048.55 1061.64 L 2051.22 1060.32 L 2053.89 1058.93 L 2056.56 1057.5 L 2059.23 1056 L 2061.9 1054.45 L 2064.56 1052.85 L 2067.23 1051.2 L 2069.9 1049.49 L 2072.57 1047.73 L 2075.24 1045.91 L 2077.91 1044.05 L 2080.58 1042.13 L 2083.25 1040.16 L 2085.92 1038.14 L 2088.59 1036.08 L 2091.26 1033.96 L 2093.93 1031.79 L 2096.6 1029.58 L 2099.27 1027.32 L 2101.94 1025.02 L 2104.6 1022.67 L 2107.27 1020.28 L 2109.94 1017.85 L 2112.61 1015.37 L 2115.28 1012.85 L 2117.95 1010.29 L 2120.62 1007.7 L 2123.29 1005.06 L 2125.96 1002.39 L 2128.63 999.684 L 2131.3 996.943 L 2133.97 994.17 L 2136.64 991.365 L 2139.31 988.53 L 2141.98 985.665 L 2144.64 982.772 L 2147.31 979.854 L 2149.98 976.909 L 2152.65 973.942 L 2155.32 970.952 L 2157.99 967.941 L 2160.66 964.911 L 2163.33 961.863 L 2166 958.798 L 2168.67 955.719 L 2171.34 952.627 L 2174.01 949.522 L 2176.68 946.408 L 2179.35 943.285 L 2182.02 940.155 L 2184.68 937.02 L 2187.35 933.881 L 2190.02 930.74 L 2192.69 927.598 L 2195.36 924.458 L 2198.03 921.32 L 2200.7 918.188 L 2203.37 915.061 L 2206.04 911.943 L 2208.71 908.834 L 2211.38 905.737 L 2214.05 902.653 L 2216.72 899.583 L 2219.39 896.53 L 2222.06 893.496 L 2224.72 890.481 L 2227.39 887.488 L 2230.06 884.519 L 2232.73 881.574 L 2235.4 878.656 L 2238.07 875.767 L 2240.74 872.908 L 2243.41 870.081 L 2246.08 867.288 L 2248.75 864.53 L 2251.42 861.809 L 2254.09 859.126 L 2256.76 856.483 L 2259.43 853.883 L 2262.1 851.325 L 2264.76 848.813 L 2267.43 846.348 L 2270.1 843.93 L 2272.77 841.563 L 2275.44 839.246 L 2278.11 836.983 L 2280.78 834.773 L 2283.45 832.62 L 2286.12 830.524 L 2288.79 828.486 L 2291.46 826.509 L 2294.13 824.592 L 2296.8 822.739 L 2299.47 820.95 L 2302.14 819.226 L 2304.8 817.569 L 2307.47 815.98 L 2310.14 814.461 L 2312.81 813.011 L 2315.48 811.633 L 2318.15 810.328 L 2320.82 809.097 L 2323.49 807.94 L 2326.16 806.86 L 2328.83 805.856 L 2331.5 804.931 L 2334.17 804.084 L 2336.84 803.317 L 2339.51 802.63 L 2342.18 802.025 L 2344.84 801.502 L 2347.51 801.063 L 2350.18 800.706 L 2352.85 800.435 L 2355.52 800.248 L 2358.19 800.147 L 2360.86 800.132 L 2363.53 800.204 L 2366.2 800.363 L 2368.87 800.61 L 2371.54 800.945 L 2374.21 801.368 L 2376.88 801.88 L 2379.55 802.481 L 2382.22 803.171 L 2384.88 803.95 L 2387.55 804.819 L 2390.22 805.778 L 2392.89 806.827 L 2395.56 807.965 L 2398.23 809.193 L 2400.9 810.51 L 2403.57 811.917 L 2406.24 813.414 L 2408.91 815 L 2411.58 816.675 L 2414.25 818.438 L 2416.92 820.289 L 2419.59 822.229 L 2422.26 824.256 L 2424.92 826.37 L 2427.59 828.571 L 2430.26 830.858 L 2432.93 833.23 L 2435.6 835.687 L 2438.27 838.227 L 2440.94 840.852 L 2443.61 843.559 L 2446.28 846.347 L 2448.95 849.217 L 2451.62 852.166 L 2454.29 855.195 L 2456.96 858.302 L 2459.63 861.486 L 2462.3 864.746 L 2464.96 868.081 L 2467.63 871.489 L 2470.3 874.971 L 2472.97 878.523 L 2475.64 882.146 L 2478.31 885.838 L 2480.98 889.598 L 2483.65 893.423 L 2486.32 897.313 L 2488.99 901.267 L 2491.66 905.283 L 2494.33 909.359 L 2497 913.493 L 2499.67 917.685 L 2502.34 921.933 L 2505 926.234 L 2507.67 930.588 L 2510.34 934.993 L 2513.01 939.446 L 2515.68 943.947 L 2518.35 948.493 L 2521.02 953.082 L 2523.69 957.714 L 2526.36 962.385 L 2529.03 967.094 L 2531.7 971.838 L 2534.37 976.617 L 2537.04 981.428 L 2539.71 986.27 L 2542.38 991.139 L 2545.04 996.035 L 2547.71 1000.95 L 2550.38 1005.9 L 2553.05 1010.86 L 2555.72 1015.84 L 2558.39 1020.83 L 2561.06 1025.84 L 2563.73 1030.86 L 2566.4 1035.89 L 2569.07 1040.92 L 2571.74 1045.97 L 2574.41 1051.01 L 2577.08 1056.05 L 2579.75 1061.1 L 2582.42 1066.14 L 2585.08 1071.17 L 2587.75 1076.19 L 2590.42 1081.21 L 2593.09 1086.21 L 2595.76 1091.2 L 2598.43 1096.16 L 2601.1 1101.11 L 2603.77 1106.04 L 2606.44 1110.95 L 2609.11 1115.82 L 2611.78 1120.67 L 2614.45 1125.49 L 2617.12 1130.28 L 2619.79 1135.03 L 2622.46 1139.74 L 2625.12 1144.42 L 2627.79 1149.05 L 2630.46 1153.64 L 2633.13 1158.19 L 2635.8 1162.68 L 2638.47 1167.13 L 2641.14 1171.52 L 2643.81 1175.86 L 2646.48 1180.15 L 2649.15 1184.37 L 2651.82 1188.54 L 2654.49 1192.64 L 2657.16 1196.68 L 2659.83 1200.65 L 2662.5 1204.56 L 2665.17 1208.39 L 2667.83 1212.15 L 2670.5 1215.84 L 2673.17 1219.45 L 2675.84 1222.98 L 2678.51 1226.44 L 2681.18 1229.81 L 2683.85 1233.11 L 2686.52 1236.31 L 2689.19 1239.43 L 2691.86 1242.47 L 2694.53 1245.41 L 2697.2 1248.26 L 2699.87 1251.02 L 2702.54 1253.69 L 2705.21 1256.26 L 2707.87 1258.73 L 2710.54 1261.11 L 2713.21 1263.39 L 2715.88 1265.56 L 2718.55 1267.64 L 2721.22 1269.61 L 2723.89 1271.47 L 2726.56 1273.23 L 2729.23 1274.89 L 2731.9 1276.44 L 2734.57 1277.87 L 2737.24 1279.2 L 2739.91 1280.42 L 2742.58 1281.53 L 2745.25 1282.52 L 2747.91 1283.4 L 2750.58 1284.17 L 2753.25 1284.83 L 2755.92 1285.37 L 2758.59 1285.79 L 2761.26 1286.1 L 2763.93 1286.29 L 2766.6 1286.36 L 2769.27 1286.32 L 2771.94 1286.16 L 2774.61 1285.88 L 2777.28 1285.48 L 2779.95 1284.97 L 2782.62 1284.33 L 2785.29 1283.58 L 2787.95 1282.71 L 2790.62 1281.72 L 2793.29 1280.61 L 2795.96 1279.39 L 2798.63 1278.04 L 2801.3 1276.58 L 2803.97 1275 L 2806.64 1273.31 L 2809.31 1271.49 L 2811.98 1269.56 L 2814.65 1267.52 L 2817.32 1265.36 L 2819.99 1263.08 L 2822.66 1260.69 L 2825.33 1258.19 L 2827.99 1255.57 L 2830.66 1252.84 L 2833.33 1250" stroke="rgb(255,0,0)" stroke-width="5" stroke-linecap="round" stroke-linejoin="round" fill="none" />
  <path d="M 166.667 1811.59 L 169.336 1795.94 L 172.005 1779.03 L 174.675 1760.89 L 177.344 1741.55 L 180.013 1721.05 L 182.683 1699.41 L 185.352 1676.68 L 188.021 1652.89 L 190.691 1628.08 L 193.36 1602.29 L 196.029 1575.57 L 198.699 1547.96 L 201.368 1519.5 L 204.037 1490.25 L 206.707 1460.25 L 209.376 1429.54 L 212.045 1398.19 L 214.715 1366.24 L 217.384 1333.74 L 220.053 1300.75 L 222.723 1267.31 L 225.392 1233.5 L 228.061 1199.35 L 230.731 1164.93 L 233.4 1130.28 L 236.069 1095.48 L 238.739 1060.57 L 241.408 1025.6 L 244.077 990.647 L 246.747 955.754 L 249.416 920.978 L 252.085 886.378 L 254.755 852.006 L 257.424 817.92 L 260.093 784.172 L 262.763 750.819 L 265.432 717.911 L 268.101 685.504 L 270.771 653.645 L 273.44 622.389 L 276.109 591.782 L 278.779 561.876 L 281.448 532.714 L 284.118 504.345 L 286.787 476.813 L 289.456 450.16 L 292.125 424.43 L 294.795 399.661 L 297.464 375.893 L 300.134 353.161 L 302.803 331.503 L 305.472 310.949 L 308.141 291.533 L 310.811 273.283 L 313.48 256.228 L 316.15 240.393 L 318.819 225.802 L 321.488 212.476 L 324.157 200.436 L 326.827 189.698 L 329.496 180.278 L 332.166 172.189 L 334.835 165.442 L 337.504 160.046 L 340.173 156.008 L 342.843 153.331 L 345.512 152.018 L 348.182 152.07 L 350.851 153.482 L 353.52 156.253 L 356.189 160.374 L 358.859 165.837 L 361.528 172.63 L 364.198 180.742 L 366.867 190.156 L 369.536 200.855 L 372.205 212.82 L 374.875 226.029 L 377.544 240.46 L 380.214 256.086 L 382.883 272.88 L 385.552 290.814 L 388.221 309.856 L 390.891 329.974 L 393.56 351.134 L 396.23 373.299 L 398.899 396.433 L 401.568 420.495 L 404.238 445.446 L 406.907 471.243 L 409.576 497.844 L 412.246 525.204 L 414.915 553.278 L 417.584 582.018 L 420.254 611.378 L 422.923 641.308 L 425.592 671.761 L 428.262 702.683 L 430.931 734.027 L 433.6 765.739 L 436.27 797.768 L 438.939 830.062 L 441.608 862.567 L 444.278 895.232 L 446.947 928.003 L 449.616 960.826 L 452.286 993.65 L 454.955 1026.42 L 457.624 1059.08 L 460.294 1091.59 L 462.963 1123.88 L 465.632 1155.91 L 468.302 1187.62 L 470.971 1218.97 L 473.64 1249.9 L 476.31 1280.37 L 478.979 1310.33 L 481.648 1339.73 L 484.318 1368.52 L 486.987 1396.66 L 489.656 1424.1 L 492.326 1450.8 L 494.995 1476.72 L 497.664 1501.82 L 500.334 1526.06 L 503.003 1549.41 L 505.672 1571.81 L 508.342 1593.25 L 511.011 1613.69 L 513.68 1633.1 L 516.35 1651.45 L 519.019 1668.71 L 521.688 1684.86 L 524.358 1699.86 L 527.027 1713.71 L 529.696 1726.38 L 532.366 1737.85 L 535.035 1748.11 L 537.704 1757.14 L 540.374 1764.94 L 543.043 1771.48 L 545.712 1776.77 L 548.382 1780.79 L 551.051 1783.55 L 553.72 1785.05 L 556.39 1785.27 L 559.059 1784.23 L 561.728 1781.93 L 564.398 1778.38 L 567.067 1773.59 L 569.736 1767.56 L 572.406 1760.31 L 575.075 1751.85 L 577.744 1742.21 L 580.414 1731.39 L 583.083 1719.43 L 585.752 1706.33 L 588.422 1692.14 L 591.091 1676.86 L 593.76 1660.54 L 596.43 1643.19 L 599.099 1624.85 L 601.768 1605.56 L 604.438 1585.34 L 607.107 1564.23 L 609.776 1542.27 L 612.446 1519.49 L 615.115 1495.94 L 617.784 1471.66 L 620.454 1446.68 L 623.123 1421.05 L 625.792 1394.81 L 628.462 1368.02 L 631.131 1340.7 L 633.8 1312.91 L 636.47 1284.7 L 639.139 1256.1 L 641.808 1227.18 L 644.478 1197.98 L 647.147 1168.54 L 649.816 1138.91 L 652.486 1109.15 L 655.155 1079.3 L 657.824 1049.42 L 660.494 1019.54 L 663.163 989.72 L 665.832 960.009 L 668.502 930.453 L 671.171 901.102 L 673.84 872 L 676.51 843.196 L 679.179 814.736 L 681.849 786.663 L 684.518 759.025 L 687.187 731.865 L 689.857 705.224 L 692.526 679.146 L 695.195 653.671 L 697.865 628.839 L 700.534 604.689 L 703.203 581.257 L 705.873 558.579 L 708.542 536.691 L 711.211 515.626 L 713.881 495.415 L 716.55 476.088 L 719.219 457.674 L 721.889 440.202 L 724.558 423.694 L 727.227 408.177 L 729.897 393.671 L 732.566 380.196 L 735.235 367.773 L 737.905 356.416 L 740.574 346.141 L 743.243 336.961 L 745.913 328.886 L 748.582 321.928 L 751.251 316.092 L 753.921 311.383 L 756.59 307.807 L 759.259 305.364 L 761.929 304.055 L 764.598 303.876 L 767.267 304.824 L 769.937 306.894 L 772.606 310.077 L 775.275 314.364 L 777.945 319.743 L 780.614 326.202 L 783.283 333.725 L 785.953 342.296 L 788.622 351.896 L 791.291 362.505 L 793.961 374.103 L 796.63 386.665 L 799.299 400.167 L 801.969 414.582 L 804.638 429.884 L 807.307 446.042 L 809.977 463.027 L 812.646 480.806 L 815.315 499.348 L 817.985 518.617 L 820.654 538.579 L 823.323 559.198 L 825.993 580.436 L 828.662 602.255 L 831.331 624.618 L 834.001 647.483 L 836.67 670.811 L 839.339 694.561 L 842.009 718.691 L 844.678 743.16 L 847.347 767.924 L 850.017 792.942 L 852.686 818.171 L 855.355 843.567 L 858.025 869.087 L 860.694 894.689 L 863.363 920.328 L 866.033 945.963 L 868.702 971.549 L 871.371 997.046 L 874.041 1022.41 L 876.71 1047.6 L 879.379 1072.57 L 882.049 1097.29 L 884.718 1121.71 L 887.387 1145.79 L 890.057 1169.5 L 892.726 1192.8 L 895.395 1215.65 L 898.065 1238.02 L 900.734 1259.86 L 903.403 1281.15 L 906.073 1301.85 L 908.742 1321.94 L 911.411 1341.37 L 914.081 1360.13 L 916.75 1378.18 L 919.419 1395.51 L 922.089 1412.07 L 924.758 1427.85 L 927.427 1442.83 L 930.097 1456.99 L 932.766 1470.31 L 935.435 1482.77 L 938.105 1494.35 L 940.774 1505.04 L 943.443 1514.83 L 946.113 1523.71 L 948.782 1531.67 L 951.451 1538.7 L 954.121 1544.79 L 956.79 1549.94 L 959.459 1554.15 L 962.129 1557.42 L 964.798 1559.74 L 967.467 1561.12 L 970.137 1561.57 L 972.806 1561.09 L 975.475 1559.69 L 978.145 1557.38 L 980.814 1554.16 L 983.483 1550.05 L 986.153 1545.06 L 988.822 1539.21 L 991.491 1532.52 L 994.161 1525 L 996.83 1516.67 L 999.499 1507.56 L 1002.17 1497.68 L 1004.84 1487.06 L 1007.51 1475.72 L 1010.18 1463.69 L 1012.85 1451 L 1015.52 1437.66 L 1018.18 1423.72 L 1020.85 1409.2 L 1023.52 1394.14 L 1026.19 1378.55 L 1028.86 1362.48 L 1031.53 1345.96 L 1034.2 1329.02 L 1036.87 1311.69 L 1039.54 1294.02 L 1042.21 1276.02 L 1044.88 1257.75 L 1047.55 1239.23 L 1050.22 1220.49 L 1052.89 1201.59 L 1055.56 1182.54 L 1058.22 1163.39 L 1060.89 1144.18 L 1063.56 1124.93 L 1066.23 1105.68 L 1068.9 1086.48 L 1071.57 1067.34 L 1074.24 1048.31 L 1076.91 1029.43 L 1079.58 1010.71 L 1082.25 992.207 L 1084.92 973.939 L 1087.59 955.94 L 1090.26 938.242 L 1092.93 920.872 L 1095.6 903.862 L 1098.26 887.237 L 1100.93 871.025 L 1103.6 855.252 L 1106.27 839.942 L 1108.94 825.118 L 1111.61 810.804 L 1114.28 797.019 L 1116.95 783.785 L 1119.62 771.119 L 1122.29 759.038 L 1124.96 747.559 L 1127.63 736.696 L 1130.3 726.463 L 1132.97 716.87 L 1135.64 707.928 L 1138.3 699.647 L 1140.97 692.032 L 1143.64 685.091 L 1146.31 678.828 L 1148.98 673.245 L 1151.65 668.345 L 1154.32 664.126 L 1156.99 660.589 L 1159.66 657.729 L 1162.33 655.543 L 1165 654.026 L 1167.67 653.169 L 1170.34 652.964 L 1173.01 653.402 L 1175.68 654.472 L 1178.34 656.161 L 1181.01 658.455 L 1183.68 661.34 L 1186.35 664.8 L 1189.02 668.817 L 1191.69 673.373 L 1194.36 678.45 L 1197.03 684.026 L 1199.7 690.081 L 1202.37 696.592 L 1205.04 703.537 L 1207.71 710.893 L 1210.38 718.634 L 1213.05 726.736 L 1215.72 735.173 L 1218.39 743.92 L 1221.05 752.95 L 1223.72 762.235 L 1226.39 771.75 L 1229.06 781.466 L 1231.73 791.355 L 1234.4 801.392 L 1237.07 811.546 L 1239.74 821.792 L 1242.41 832.101 L 1245.08 842.446 L 1247.75 852.8 L 1250.42 863.137 L 1253.09 873.43 L 1255.76 883.653 L 1258.43 893.781 L 1261.09 903.79 L 1263.76 913.654 L 1266.43 923.352 L 1269.1 932.86 L 1271.77 942.157 L 1274.44 951.223 L 1277.11 960.037 L 1279.78 968.581 L 1282.45 976.838 L 1285.12 984.79 L 1287.79 992.424 L 1290.46 999.724 L 1293.13 1006.68 L 1295.8 1013.28 L 1298.47 1019.51 L 1301.13 1025.36 L 1303.8 1030.83 L 1306.47 1035.91 L 1309.14 1040.6 L 1311.81 1044.89 L 1314.48 1048.79 L 1317.15 1052.28 L 1319.82 1055.38 L 1322.49 1058.09 L 1325.16 1060.41 L 1327.83 1062.34 L 1330.5 1063.9 L 1333.17 1065.09 L 1335.84 1065.92 L 1338.51 1066.41 L 1341.17 1066.56 L 1343.84 1066.4 L 1346.51 1065.92 L 1349.18 1065.16 L 1351.85 1064.13 L 1354.52 1062.85 L 1357.19 1061.32 L 1359.86 1059.59 L 1362.53 1057.66 L 1365.2 1055.55 L 1367.87 1053.29 L 1370.54 1050.9 L 1373.21 1048.4 L 1375.88 1045.81 L 1378.55 1043.16 L 1381.21 1040.46 L 1383.88 1037.73 L 1386.55 1035.01 L 1389.22 1032.3 L 1391.89 1029.63 L 1394.56 1027.01 L 1397.23 1024.47 L 1399.9 1022.01 L 1402.57 1019.66 L 1405.24 1017.42 L 1407.91 1015.31 L 1410.58 1013.33 L 1413.25 1011.5 L 1415.92 1009.82 L 1418.59 1008.29 L 1421.25 1006.91 L 1423.92 1005.68 L 1426.59 1004.6 L 1429.26 1003.67 L 1431.93 1002.87 L 1434.6 1002.2 L 1437.27 1001.65 L 1439.94 1001.21 L 1442.61 1000.86 L 1445.28 1000.59 L 1447.95 1000.39 L 1450.62 1000.25 L 1453.29 1000.15 L 1455.96 1000.08 L 1458.63 1000.04 L 1461.29 1000.02 L 1463.96 1000.01 L 1466.63 1000 L 1469.3 1000 L 1471.97 1000 L 1474.64 1000 L 1477.31 1000 L 1479.98 1000 L 1482.65 1000 L 1485.32 1000 L 1487.99 1000 L 1490.66 1000 L 1493.33 1000 L 1496 1000 L 1498.67 1000 L 1501.33 1000 L 1504 1000 L 1506.67 1000 L 1509.34 1000 L 1512.01 1000 L 1514.68 1000 L 1517.35 1000 L 1520.02 1000 L 1522.69 1000 L 1525.36 1000 L 1528.03 1000 L 1530.7 999.999 L 1533.37 999.996 L 1536.04 999.991 L 1538.71 999.979 L 1541.37 999.956 L 1544.04 999.916 L 1546.71 999.852 L 1549.38 999.754 L 1552.05 999.612 L 1554.72 999.413 L 1557.39 999.145 L 1560.06 998.795 L 1562.73 998.351 L 1565.4 997.799 L 1568.07 997.13 L 1570.74 996.333 L 1573.41 995.399 L 1576.08 994.32 L 1578.75 993.093 L 1581.41 991.714 L 1584.08 990.182 L 1586.75 988.498 L 1589.42 986.665 L 1592.09 984.689 L 1594.76 982.578 L 1597.43 980.34 L 1600.1 977.986 L 1602.77 975.53 L 1605.44 972.986 L 1608.11 970.37 L 1610.78 967.699 L 1613.45 964.991 L 1616.12 962.266 L 1618.79 959.543 L 1621.45 956.844 L 1624.12 954.189 L 1626.79 951.6 L 1629.46 949.1 L 1632.13 946.709 L 1634.8 944.45 L 1637.47 942.343 L 1640.14 940.412 L 1642.81 938.675 L 1645.48 937.154 L 1648.15 935.868 L 1650.82 934.836 L 1653.49 934.076 L 1656.16 933.605 L 1658.83 933.438 L 1661.49 933.592 L 1664.16 934.079 L 1666.83 934.912 L 1669.5 936.102 L 1672.17 937.66 L 1674.84 939.594 L 1677.51 941.911 L 1680.18 944.618 L 1682.85 947.718 L 1685.52 951.214 L 1688.19 955.108 L 1690.86 959.4 L 1693.53 964.088 L 1696.2 969.169 L 1698.87 974.64 L 1701.53 980.494 L 1704.2 986.724 L 1706.87 993.321 L 1709.54 1000.28 L 1712.21 1007.58 L 1714.88 1015.21 L 1717.55 1023.16 L 1720.22 1031.42 L 1722.89 1039.96 L 1725.56 1048.78 L 1728.23 1057.84 L 1730.9 1067.14 L 1733.57 1076.65 L 1736.24 1086.35 L 1738.91 1096.21 L 1741.57 1106.22 L 1744.24 1116.35 L 1746.91 1126.57 L 1749.58 1136.86 L 1752.25 1147.2 L 1754.92 1157.55 L 1757.59 1167.9 L 1760.26 1178.21 L 1762.93 1188.45 L 1765.6 1198.61 L 1768.27 1208.64 L 1770.94 1218.53 L 1773.61 1228.25 L 1776.28 1237.76 L 1778.95 1247.05 L 1781.61 1256.08 L 1784.28 1264.83 L 1786.95 1273.26 L 1789.62 1281.37 L 1792.29 1289.11 L 1794.96 1296.46 L 1797.63 1303.41 L 1800.3 1309.92 L 1802.97 1315.97 L 1805.64 1321.55 L 1808.31 1326.63 L 1810.98 1331.18 L 1813.65 1335.2 L 1816.32 1338.66 L 1818.99 1341.54 L 1821.65 1343.84 L 1824.32 1345.53 L 1826.99 1346.6 L 1829.66 1347.04 L 1832.33 1346.83 L 1835 1345.97 L 1837.67 1344.46 L 1840.34 1342.27 L 1843.01 1339.41 L 1845.68 1335.87 L 1848.35 1331.66 L 1851.02 1326.76 L 1853.69 1321.17 L 1856.36 1314.91 L 1859.03 1307.97 L 1861.7 1300.35 L 1864.36 1292.07 L 1867.03 1283.13 L 1869.7 1273.54 L 1872.37 1263.3 L 1875.04 1252.44 L 1877.71 1240.96 L 1880.38 1228.88 L 1883.05 1216.22 L 1885.72 1202.98 L 1888.39 1189.2 L 1891.06 1174.88 L 1893.73 1160.06 L 1896.4 1144.75 L 1899.07 1128.98 L 1901.73 1112.76 L 1904.4 1096.14 L 1907.07 1079.13 L 1909.74 1061.76 L 1912.41 1044.06 L 1915.08 1026.06 L 1917.75 1007.79 L 1920.42 989.286 L 1923.09 970.573 L 1925.76 951.686 L 1928.43 932.658 L 1931.1 913.524 L 1933.77 894.317 L 1936.44 875.071 L 1939.11 855.823 L 1941.78 836.607 L 1944.44 817.458 L 1947.11 798.413 L 1949.78 779.507 L 1952.45 760.776 L 1955.12 742.255 L 1957.79 723.98 L 1960.46 705.986 L 1963.13 688.308 L 1965.8 670.981 L 1968.47 654.04 L 1971.14 637.518 L 1973.81 621.448 L 1976.48 605.863 L 1979.15 590.796 L 1981.82 576.277 L 1984.48 562.336 L 1987.15 549.004 L 1989.82 536.309 L 1992.49 524.28 L 1995.16 512.941 L 1997.83 502.32 L 2000.5 492.441 L 2003.17 483.326 L 2005.84 474.999 L 2008.51 467.479 L 2011.18 460.786 L 2013.85 454.939 L 2016.52 449.953 L 2019.19 445.844 L 2021.86 442.625 L 2024.52 440.309 L 2027.19 438.906 L 2029.86 438.426 L 2032.53 438.875 L 2035.2 440.26 L 2037.87 442.585 L 2040.54 445.851 L 2043.21 450.061 L 2045.88 455.213 L 2048.55 461.304 L 2051.22 468.331 L 2053.89 476.287 L 2056.56 485.166 L 2059.23 494.957 L 2061.9 505.65 L 2064.56 517.232 L 2067.23 529.69 L 2069.9 543.007 L 2072.57 557.165 L 2075.24 572.147 L 2077.91 587.93 L 2080.58 604.494 L 2083.25 621.815 L 2085.92 639.868 L 2088.59 658.627 L 2091.26 678.062 L 2093.93 698.147 L 2096.6 718.85 L 2099.27 740.14 L 2101.94 761.983 L 2104.6 784.347 L 2107.27 807.196 L 2109.94 830.494 L 2112.61 854.204 L 2115.28 878.289 L 2117.95 902.71 L 2120.62 927.427 L 2123.29 952.401 L 2125.96 977.59 L 2128.63 1002.95 L 2131.3 1028.45 L 2133.97 1054.04 L 2136.64 1079.67 L 2139.31 1105.31 L 2141.98 1130.91 L 2144.64 1156.43 L 2147.31 1181.83 L 2149.98 1207.06 L 2152.65 1232.07 L 2155.32 1256.84 L 2157.99 1281.31 L 2160.66 1305.44 L 2163.33 1329.19 L 2166 1352.52 L 2168.67 1375.38 L 2171.34 1397.74 L 2174.01 1419.56 L 2176.68 1440.8 L 2179.35 1461.42 L 2182.02 1481.38 L 2184.68 1500.65 L 2187.35 1519.19 L 2190.02 1536.97 L 2192.69 1553.96 L 2195.36 1570.12 L 2198.03 1585.42 L 2200.7 1599.83 L 2203.37 1613.33 L 2206.04 1625.9 L 2208.71 1637.49 L 2211.38 1648.1 L 2214.05 1657.7 L 2216.72 1666.27 L 2219.39 1673.8 L 2222.06 1680.26 L 2224.72 1685.64 L 2227.39 1689.92 L 2230.06 1693.11 L 2232.73 1695.18 L 2235.4 1696.12 L 2238.07 1695.95 L 2240.74 1694.64 L 2243.41 1692.19 L 2246.08 1688.62 L 2248.75 1683.91 L 2251.42 1678.07 L 2254.09 1671.11 L 2256.76 1663.04 L 2259.43 1653.86 L 2262.1 1643.58 L 2264.76 1632.23 L 2267.43 1619.8 L 2270.1 1606.33 L 2272.77 1591.82 L 2275.44 1576.31 L 2278.11 1559.8 L 2280.78 1542.33 L 2283.45 1523.91 L 2286.12 1504.59 L 2288.79 1484.37 L 2291.46 1463.31 L 2294.13 1441.42 L 2296.8 1418.74 L 2299.47 1395.31 L 2302.14 1371.16 L 2304.8 1346.33 L 2307.47 1320.85 L 2310.14 1294.78 L 2312.81 1268.14 L 2315.48 1240.98 L 2318.15 1213.34 L 2320.82 1185.27 L 2323.49 1156.81 L 2326.16 1128 L 2328.83 1098.9 L 2331.5 1069.55 L 2334.17 1039.99 L 2336.84 1010.28 L 2339.51 980.464 L 2342.18 950.586 L 2344.84 920.699 L 2347.51 890.851 L 2350.18 861.089 L 2352.85 831.465 L 2355.52 802.026 L 2358.19 772.821 L 2360.86 743.898 L 2363.53 715.306 L 2366.2 687.092 L 2368.87 659.303 L 2371.54 631.986 L 2374.21 605.187 L 2376.88 578.951 L 2379.55 553.322 L 2382.22 528.344 L 2384.88 504.059 L 2387.55 480.508 L 2390.22 457.733 L 2392.89 435.772 L 2395.56 414.663 L 2398.23 394.444 L 2400.9 375.149 L 2403.57 356.812 L 2406.24 339.465 L 2408.91 323.139 L 2411.58 307.864 L 2414.25 293.667 L 2416.92 280.574 L 2419.59 268.608 L 2422.26 257.793 L 2424.92 248.148 L 2427.59 239.693 L 2430.26 232.443 L 2432.93 226.414 L 2435.6 221.618 L 2438.27 218.067 L 2440.94 215.768 L 2443.61 214.729 L 2446.28 214.954 L 2448.95 216.447 L 2451.62 219.206 L 2454.29 223.231 L 2456.96 228.519 L 2459.63 235.063 L 2462.3 242.855 L 2464.96 251.887 L 2467.63 262.146 L 2470.3 273.618 L 2472.97 286.287 L 2475.64 300.136 L 2478.31 315.144 L 2480.98 331.289 L 2483.65 348.549 L 2486.32 366.896 L 2488.99 386.305 L 2491.66 406.745 L 2494.33 428.185 L 2497 450.594 L 2499.67 473.936 L 2502.34 498.177 L 2505 523.277 L 2507.67 549.198 L 2510.34 575.901 L 2513.01 603.343 L 2515.68 631.481 L 2518.35 660.271 L 2521.02 689.668 L 2523.69 719.625 L 2526.36 750.094 L 2529.03 781.029 L 2531.7 812.378 L 2534.37 844.093 L 2537.04 876.122 L 2539.71 908.414 L 2542.38 940.918 L 2545.04 973.58 L 2547.71 1006.35 L 2550.38 1039.17 L 2553.05 1072 L 2555.72 1104.77 L 2558.39 1137.43 L 2561.06 1169.94 L 2563.73 1202.23 L 2566.4 1234.26 L 2569.07 1265.97 L 2571.74 1297.32 L 2574.41 1328.24 L 2577.08 1358.69 L 2579.75 1388.62 L 2582.42 1417.98 L 2585.08 1446.72 L 2587.75 1474.79 L 2590.42 1502.16 L 2593.09 1528.76 L 2595.76 1554.55 L 2598.43 1579.5 L 2601.1 1603.57 L 2603.77 1626.7 L 2606.44 1648.87 L 2609.11 1670.02 L 2611.78 1690.14 L 2614.45 1709.18 L 2617.12 1727.12 L 2619.79 1743.91 L 2622.46 1759.54 L 2625.12 1773.97 L 2627.79 1787.18 L 2630.46 1799.14 L 2633.13 1809.84 L 2635.8 1819.26 L 2638.47 1827.37 L 2641.14 1834.16 L 2643.81 1839.63 L 2646.48 1843.75 L 2649.15 1846.52 L 2651.82 1847.93 L 2654.49 1847.98 L 2657.16 1846.67 L 2659.83 1843.99 L 2662.5 1839.95 L 2665.17 1834.56 L 2667.83 1827.81 L 2670.5 1819.72 L 2673.17 1810.3 L 2675.84 1799.56 L 2678.51 1787.52 L 2681.18 1774.2 L 2683.85 1759.61 L 2686.52 1743.77 L 2689.19 1726.72 L 2691.86 1708.47 L 2694.53 1689.05 L 2697.2 1668.5 L 2699.87 1646.84 L 2702.54 1624.11 L 2705.21 1600.34 L 2707.87 1575.57 L 2710.54 1549.84 L 2713.21 1523.19 L 2715.88 1495.66 L 2718.55 1467.29 L 2721.22 1438.13 L 2723.89 1408.22 L 2726.56 1377.61 L 2729.23 1346.36 L 2731.9 1314.5 L 2734.57 1282.09 L 2737.24 1249.18 L 2739.91 1215.83 L 2742.58 1182.08 L 2745.25 1148 L 2747.91 1113.62 L 2750.58 1079.02 L 2753.25 1044.25 L 2755.92 1009.35 L 2758.59 974.397 L 2761.26 939.436 L 2763.93 904.524 L 2766.6 869.719 L 2769.27 835.077 L 2771.94 800.654 L 2774.61 766.506 L 2777.28 732.689 L 2779.95 699.256 L 2782.62 666.264 L 2785.29 633.765 L 2787.95 601.811 L 2790.62 570.459 L 2793.29 539.754 L 2795.96 509.752 L 2798.63 480.498 L 2801.3 452.043 L 2803.97 424.431 L 2806.64 397.711 L 2809.31 371.924 L 2811.98 347.115 L 2814.65 323.323 L 2817.32 300.591 L 2819.99 278.953 L 2822.66 258.449 L 2825.33 239.11 L 2827.99 220.97 L 2830.66 204.06 L 2833.33 188.409" stroke="rgb(255,165,0)" stroke-width="5" stroke-linecap="round" stroke-linejoin="round" fill="none" />
  <image x="1799" y="280" width="500" height="71" xlink:href="/var/folders/d4/5knz148s47n73zjn72mljh1h0000gn/T//LaTeXCache/60b54b3136d6cec1163b7482a40e27340ba65ea384563bbc8c245b4a45bf.png" />
</svg>
