<?xml version="1.0" encoding="UTF-8" standalone="no"?>
<!-- Generated by Plot Library -->
<svg width="3189" height="2037" viewBox="0 0 3189 2037" xmlns="http://www.w3.org/2000/svg" xmlns:xlink="http://www.w3.org/1999/xlink">
  <title>Plot</title>
  <desc>Generated plot with axes, grid, and data points.</desc>
  <style>
    .grid-line { stroke: #ccc; stroke-width: 0.5; }
    .axis-line { stroke: #000; stroke-width: 1; }
    .data-point { fill: #0074D9; }
  </style>
  <line x1="114.5" y1="40" x2="114.5" y2="1977" stroke="rgb(230,230,230)" stroke-width="2.5" />
  <line x1="414.5" y1="40" x2="414.5" y2="1977" stroke="rgb(230,230,230)" stroke-width="2.5" />
  <line x1="714.5" y1="40" x2="714.5" y2="1977" stroke="rgb(230,230,230)" stroke-width="2.5" />
  <line x1="1014.5" y1="40" x2="1014.5" y2="1977" stroke="rgb(230,230,230)" stroke-width="2.5" />
  <line x1="1314.5" y1="40" x2="1314.5" y2="1977" stroke="rgb(230,230,230)" stroke-width="2.5" />
  <line x1="1614.5" y1="40" x2="1614.5" y2="1977" stroke="rgb(230,230,230)" stroke-width="2.5" />
  <line x1="1914.5" y1="40" x2="1914.5" y2="1977" stroke="rgb(230,230,230)" stroke-width="2.5" />
  <line x1="2214.5" y1="40" x2="2214.5" y2="1977" stroke="rgb(230,230,230)" stroke-width="2.5" />
  <line x1="2514.5" y1="40" x2="2514.5" y2="1977" stroke="rgb(230,230,230)" stroke-width="2.5" />
  <line x1="2814.5" y1="40" x2="2814.5" y2="1977" stroke="rgb(230,230,230)" stroke-width="2.5" />
  <line x1="3114.5" y1="40" x2="3114.5" y2="1977" stroke="rgb(230,230,230)" stroke-width="2.5" />
  <line x1="80" y1="1908.5" x2="3149" y2="1908.5" stroke="rgb(230,230,230)" stroke-width="2.5" />
  <line x1="80" y1="1608.5" x2="3149" y2="1608.5" stroke="rgb(230,230,230)" stroke-width="2.5" />
  <line x1="80" y1="1308.5" x2="3149" y2="1308.5" stroke="rgb(230,230,230)" stroke-width="2.5" />
  <line x1="80" y1="1008.5" x2="3149" y2="1008.5" stroke="rgb(230,230,230)" stroke-width="2.5" />
  <line x1="80" y1="708.5" x2="3149" y2="708.5" stroke="rgb(230,230,230)" stroke-width="2.5" />
  <line x1="80" y1="408.5" x2="3149" y2="408.5" stroke="rgb(230,230,230)" stroke-width="2.5" />
  <line x1="80" y1="108.5" x2="3149" y2="108.5" stroke="rgb(230,230,230)" stroke-width="2.5" />
  <line x1="80" y1="1977" x2="3149" y2="1977" stroke="rgb(40,40,40)" stroke-width="1.5" />
  <line x1="80" y1="1977" x2="80" y2="1985" stroke="rgb(40,40,40)" stroke-width="1.5" />
  <text x="38" y="2020" font-size="20" fill="rgb(40,40,40)">-20.00</text>
  <line x1="463" y1="1977" x2="463" y2="1985" stroke="rgb(40,40,40)" stroke-width="1.5" />
  <text x="421" y="2020" font-size="20" fill="rgb(40,40,40)">-15.00</text>
  <line x1="847" y1="1977" x2="847" y2="1985" stroke="rgb(40,40,40)" stroke-width="1.5" />
  <text x="805" y="2020" font-size="20" fill="rgb(40,40,40)">-10.00</text>
  <line x1="1230" y1="1977" x2="1230" y2="1985" stroke="rgb(40,40,40)" stroke-width="1.5" />
  <text x="1195" y="2020" font-size="20" fill="rgb(40,40,40)">-5.00</text>
  <line x1="1614" y1="1977" x2="1614" y2="1985" stroke="rgb(40,40,40)" stroke-width="1.5" />
  <text x="1586" y="2020" font-size="20" fill="rgb(40,40,40)">0.00</text>
  <line x1="1998" y1="1977" x2="1998" y2="1985" stroke="rgb(40,40,40)" stroke-width="1.5" />
  <text x="1970" y="2020" font-size="20" fill="rgb(40,40,40)">5.00</text>
  <line x1="2381" y1="1977" x2="2381" y2="1985" stroke="rgb(40,40,40)" stroke-width="1.5" />
  <text x="2346" y="2020" font-size="20" fill="rgb(40,40,40)">10.00</text>
  <line x1="2765" y1="1977" x2="2765" y2="1985" stroke="rgb(40,40,40)" stroke-width="1.5" />
  <text x="2730" y="2020" font-size="20" fill="rgb(40,40,40)">15.00</text>
  <line x1="3149" y1="1977" x2="3149" y2="1985" stroke="rgb(40,40,40)" stroke-width="1.5" />
  <text x="3114" y="2020" font-size="20" fill="rgb(40,40,40)">20.00</text>
  <text x="1607" y="2063" font-size="24" fill="rgb(40,40,40)">x</text>
  <line x1="80" y1="40" x2="80" y2="1977" stroke="rgb(40,40,40)" stroke-width="1.5" />
  <line x1="80" y1="1977" x2="72" y2="1977" stroke="rgb(40,40,40)" stroke-width="1.5" />
  <text x="-23" y="1986" font-size="20" fill="rgb(40,40,40)">-1.50</text>
  <line x1="80" y1="1654" x2="72" y2="1654" stroke="rgb(40,40,40)" stroke-width="1.5" />
  <text x="-23" y="1663" font-size="20" fill="rgb(40,40,40)">-1.00</text>
  <line x1="80" y1="1331" x2="72" y2="1331" stroke="rgb(40,40,40)" stroke-width="1.5" />
  <text x="-23" y="1340" font-size="20" fill="rgb(40,40,40)">-0.50</text>
  <line x1="80" y1="1008" x2="72" y2="1008" stroke="rgb(40,40,40)" stroke-width="1.5" />
  <text x="-9" y="1017" font-size="20" fill="rgb(40,40,40)">0.00</text>
  <line x1="80" y1="685" x2="72" y2="685" stroke="rgb(40,40,40)" stroke-width="1.5" />
  <text x="-9" y="694" font-size="20" fill="rgb(40,40,40)">0.50</text>
  <line x1="80" y1="362" x2="72" y2="362" stroke="rgb(40,40,40)" stroke-width="1.5" />
  <text x="-9" y="371" font-size="20" fill="rgb(40,40,40)">1.00</text>
  <line x1="80" y1="40" x2="72" y2="40" stroke="rgb(40,40,40)" stroke-width="1.5" />
  <text x="-9" y="49" font-size="20" fill="rgb(40,40,40)">1.50</text>
  <text x="-4" y="1050" font-size="24" fill="rgb(40,40,40)">sin(x)</text>
  <path d="M 80 1303.23 L 83.0721 1297.72 L 86.1441 1291.75 L 89.2163 1285.32 L 92.2883 1278.45 L 95.3604 1271.14 L 98.4324 1263.42 L 101.505 1255.28 L 104.577 1246.76 L 107.649 1237.84 L 110.721 1228.57 L 113.793 1218.93 L 116.865 1208.97 L 119.937 1198.68 L 123.009 1188.08 L 126.081 1177.2 L 129.153 1166.04 L 132.225 1154.64 L 135.297 1143 L 138.369 1131.14 L 141.441 1119.09 L 144.514 1106.86 L 147.586 1094.47 L 150.658 1081.95 L 153.73 1069.31 L 156.802 1056.57 L 159.874 1043.75 L 162.946 1030.87 L 166.018 1017.97 L 169.09 1005.04 L 172.162 992.121 L 175.234 979.228 L 178.306 966.382 L 181.378 953.603 L 184.45 940.913 L 187.523 928.33 L 190.595 915.877 L 193.667 903.571 L 196.739 891.435 L 199.811 879.485 L 202.883 867.742 L 205.955 856.225 L 209.027 844.953 L 212.099 833.942 L 215.171 823.211 L 218.243 812.777 L 221.315 802.657 L 224.387 792.867 L 227.46 783.422 L 230.532 774.338 L 233.604 765.63 L 236.676 757.311 L 239.748 749.394 L 242.82 741.894 L 245.892 734.82 L 248.964 728.185 L 252.036 721.999 L 255.108 716.273 L 258.18 711.015 L 261.252 706.234 L 264.324 701.937 L 267.396 698.132 L 270.469 694.825 L 273.54 692.02 L 276.613 689.722 L 279.685 687.936 L 282.757 686.663 L 285.829 685.907 L 288.901 685.667 L 291.973 685.945 L 295.045 686.74 L 298.117 688.051 L 301.189 689.875 L 304.261 692.21 L 307.333 695.052 L 310.405 698.397 L 313.477 702.239 L 316.549 706.571 L 319.622 711.388 L 322.694 716.681 L 325.766 722.442 L 328.838 728.661 L 331.91 735.329 L 334.982 742.434 L 338.054 749.967 L 341.126 757.913 L 344.198 766.262 L 347.27 774.998 L 350.342 784.109 L 353.414 793.58 L 356.486 803.395 L 359.559 813.539 L 362.631 823.995 L 365.703 834.748 L 368.775 845.778 L 371.847 857.07 L 374.919 868.604 L 377.991 880.363 L 381.063 892.327 L 384.135 904.477 L 387.207 916.794 L 390.279 929.258 L 393.351 941.849 L 396.423 954.546 L 399.495 967.331 L 402.568 980.181 L 405.64 993.077 L 408.712 1006 L 411.784 1018.92 L 414.856 1031.83 L 417.928 1044.7 L 421 1057.51 L 424.072 1070.25 L 427.144 1082.88 L 430.216 1095.4 L 433.288 1107.77 L 436.36 1119.99 L 439.432 1132.03 L 442.505 1143.87 L 445.577 1155.49 L 448.649 1166.88 L 451.721 1178.01 L 454.793 1188.88 L 457.865 1199.45 L 460.937 1209.71 L 464.009 1219.66 L 467.081 1229.27 L 470.153 1238.52 L 473.225 1247.4 L 476.297 1255.9 L 479.369 1264 L 482.441 1271.7 L 485.513 1278.97 L 488.586 1285.81 L 491.658 1292.2 L 494.73 1298.14 L 497.802 1303.62 L 500.874 1308.62 L 503.946 1313.14 L 507.018 1317.17 L 510.09 1320.71 L 513.162 1323.75 L 516.234 1326.28 L 519.306 1328.3 L 522.378 1329.81 L 525.45 1330.81 L 528.522 1331.29 L 531.595 1331.25 L 534.667 1330.69 L 537.739 1329.62 L 540.811 1328.03 L 543.883 1325.93 L 546.955 1323.32 L 550.027 1320.21 L 553.099 1316.59 L 556.171 1312.49 L 559.243 1307.89 L 562.315 1302.82 L 565.387 1297.27 L 568.459 1291.26 L 571.531 1284.8 L 574.604 1277.9 L 577.676 1270.56 L 580.748 1262.8 L 583.82 1254.64 L 586.892 1246.08 L 589.964 1237.14 L 593.036 1227.83 L 596.108 1218.17 L 599.18 1208.18 L 602.252 1197.87 L 605.324 1187.25 L 608.396 1176.34 L 611.468 1165.17 L 614.54 1153.75 L 617.613 1142.09 L 620.685 1130.22 L 623.757 1118.15 L 626.829 1105.91 L 629.901 1093.51 L 632.973 1080.97 L 636.045 1068.32 L 639.117 1055.58 L 642.189 1042.75 L 645.261 1029.88 L 648.333 1016.96 L 651.405 1004.04 L 654.477 991.121 L 657.549 978.231 L 660.622 965.39 L 663.694 952.617 L 666.766 939.934 L 669.838 927.361 L 672.91 914.918 L 675.982 902.625 L 679.054 890.502 L 682.126 878.568 L 685.198 866.842 L 688.27 855.343 L 691.342 844.09 L 694.414 833.1 L 697.487 822.392 L 700.559 811.982 L 703.631 801.887 L 706.703 792.123 L 709.775 782.706 L 712.847 773.65 L 715.919 764.972 L 718.991 756.683 L 722.063 748.799 L 725.135 741.33 L 728.207 734.29 L 731.279 727.69 L 734.351 721.539 L 737.423 715.849 L 740.495 710.628 L 743.568 705.884 L 746.64 701.625 L 749.712 697.858 L 752.784 694.589 L 755.856 691.824 L 758.928 689.566 L 762 687.819 L 765.072 686.586 L 768.144 685.87 L 771.216 685.67 L 774.288 685.988 L 777.36 686.823 L 780.432 688.174 L 783.504 690.038 L 786.577 692.412 L 789.649 695.293 L 792.721 698.677 L 795.793 702.557 L 798.865 706.927 L 801.937 711.781 L 805.009 717.111 L 808.081 722.907 L 811.153 729.161 L 814.225 735.864 L 817.297 743.003 L 820.369 750.567 L 823.441 758.546 L 826.514 766.925 L 829.586 775.691 L 832.658 784.83 L 835.73 794.328 L 838.802 804.169 L 841.874 814.338 L 844.946 824.818 L 848.018 835.592 L 851.09 846.644 L 854.162 857.955 L 857.234 869.507 L 860.306 881.282 L 863.378 893.261 L 866.45 905.425 L 869.523 917.754 L 872.595 930.229 L 875.667 942.828 L 878.739 955.534 L 881.811 968.324 L 884.883 981.178 L 887.955 994.077 L 891.027 1007 L 894.099 1019.92 L 897.171 1032.83 L 900.243 1045.69 L 903.315 1058.5 L 906.387 1071.23 L 909.459 1083.85 L 912.531 1096.36 L 915.604 1108.72 L 918.676 1120.93 L 921.748 1132.95 L 924.82 1144.78 L 927.892 1156.38 L 930.964 1167.75 L 934.036 1178.86 L 937.108 1189.7 L 940.18 1200.25 L 943.252 1210.5 L 946.324 1220.42 L 949.396 1229.99 L 952.469 1239.22 L 955.541 1248.07 L 958.613 1256.54 L 961.685 1264.62 L 964.757 1272.28 L 967.829 1279.52 L 970.901 1286.32 L 973.973 1292.68 L 977.045 1298.58 L 980.117 1304.02 L 983.189 1308.99 L 986.261 1313.47 L 989.333 1317.47 L 992.405 1320.96 L 995.477 1323.96 L 998.55 1326.46 L 1001.62 1328.44 L 1004.69 1329.91 L 1007.77 1330.86 L 1010.84 1331.3 L 1013.91 1331.22 L 1016.98 1330.63 L 1020.05 1329.51 L 1023.13 1327.89 L 1026.2 1325.75 L 1029.27 1323.1 L 1032.34 1319.95 L 1035.41 1316.29 L 1038.49 1312.15 L 1041.56 1307.52 L 1044.63 1302.41 L 1047.7 1296.82 L 1050.77 1290.78 L 1053.85 1284.28 L 1056.92 1277.34 L 1059.99 1269.97 L 1063.06 1262.19 L 1066.14 1253.99 L 1069.21 1245.4 L 1072.28 1236.43 L 1075.35 1227.1 L 1078.42 1217.41 L 1081.5 1207.39 L 1084.57 1197.05 L 1087.64 1186.41 L 1090.71 1175.49 L 1093.78 1164.29 L 1096.86 1152.85 L 1099.93 1141.18 L 1103 1129.29 L 1106.07 1117.21 L 1109.14 1104.95 L 1112.22 1092.54 L 1115.29 1080 L 1118.36 1067.34 L 1121.43 1054.59 L 1124.5 1041.76 L 1127.58 1028.88 L 1130.65 1015.96 L 1133.72 1003.04 L 1136.79 990.122 L 1139.86 977.235 L 1142.94 964.398 L 1146.01 951.631 L 1149.08 938.956 L 1152.15 926.393 L 1155.23 913.961 L 1158.3 901.68 L 1161.37 889.571 L 1164.44 877.652 L 1167.51 865.943 L 1170.59 854.463 L 1173.66 843.229 L 1176.73 832.261 L 1179.8 821.575 L 1182.87 811.189 L 1185.95 801.118 L 1189.02 791.381 L 1192.09 781.991 L 1195.16 772.965 L 1198.23 764.316 L 1201.31 756.058 L 1204.38 748.205 L 1207.45 740.77 L 1210.52 733.763 L 1213.59 727.197 L 1216.67 721.082 L 1219.74 715.428 L 1222.81 710.243 L 1225.88 705.536 L 1228.95 701.316 L 1232.03 697.587 L 1235.1 694.357 L 1238.17 691.631 L 1241.24 689.412 L 1244.32 687.705 L 1247.39 686.512 L 1250.46 685.836 L 1253.53 685.676 L 1256.6 686.034 L 1259.68 686.909 L 1262.75 688.3 L 1265.82 690.203 L 1268.89 692.617 L 1271.96 695.538 L 1275.04 698.96 L 1278.11 702.878 L 1281.18 707.286 L 1284.25 712.177 L 1287.32 717.543 L 1290.4 723.375 L 1293.47 729.665 L 1296.54 736.401 L 1299.61 743.573 L 1302.68 751.171 L 1305.76 759.18 L 1308.83 767.59 L 1311.9 776.385 L 1314.97 785.553 L 1318.04 795.078 L 1321.12 804.945 L 1324.19 815.138 L 1327.26 825.642 L 1330.33 836.438 L 1333.41 847.51 L 1336.48 858.841 L 1339.55 870.411 L 1342.62 882.203 L 1345.69 894.197 L 1348.77 906.374 L 1351.84 918.715 L 1354.91 931.2 L 1357.98 943.809 L 1361.05 956.521 L 1364.13 969.317 L 1367.2 982.176 L 1370.27 995.077 L 1373.34 1008 L 1376.41 1020.92 L 1379.49 1033.83 L 1382.56 1046.69 L 1385.63 1059.49 L 1388.7 1072.21 L 1391.77 1084.83 L 1394.85 1097.32 L 1397.92 1109.68 L 1400.99 1121.87 L 1404.06 1133.88 L 1407.14 1145.68 L 1410.21 1157.27 L 1413.28 1168.62 L 1416.35 1179.71 L 1419.42 1190.53 L 1422.5 1201.06 L 1425.57 1211.28 L 1428.64 1221.17 L 1431.71 1230.72 L 1434.78 1239.92 L 1437.86 1248.74 L 1440.93 1257.18 L 1444 1265.22 L 1447.07 1272.85 L 1450.14 1280.06 L 1453.22 1286.83 L 1456.29 1293.15 L 1459.36 1299.02 L 1462.43 1304.42 L 1465.5 1309.35 L 1468.58 1313.8 L 1471.65 1317.75 L 1474.72 1321.22 L 1477.79 1324.17 L 1480.86 1326.63 L 1483.94 1328.57 L 1487.01 1330 L 1490.08 1330.92 L 1493.15 1331.31 L 1496.23 1331.2 L 1499.3 1330.56 L 1502.37 1329.41 L 1505.44 1327.74 L 1508.51 1325.56 L 1511.59 1322.87 L 1514.66 1319.68 L 1517.73 1315.99 L 1520.8 1311.81 L 1523.87 1307.14 L 1526.95 1301.99 L 1530.02 1296.37 L 1533.09 1290.29 L 1536.16 1283.76 L 1539.23 1276.79 L 1542.31 1269.39 L 1545.38 1261.56 L 1548.45 1253.34 L 1551.52 1244.72 L 1554.59 1235.72 L 1557.67 1226.36 L 1560.74 1216.65 L 1563.81 1206.6 L 1566.88 1196.24 L 1569.95 1185.58 L 1573.03 1174.63 L 1576.1 1163.42 L 1579.17 1151.95 L 1582.24 1140.26 L 1585.32 1128.36 L 1588.39 1116.26 L 1591.46 1104 L 1594.53 1091.58 L 1597.6 1079.02 L 1600.68 1066.35 L 1603.75 1053.59 L 1606.82 1040.76 L 1609.89 1027.88 L 1612.96 1014.96 L 1616.04 1002.04 L 1619.11 989.122 L 1622.18 976.239 L 1625.25 963.406 L 1628.32 950.646 L 1631.4 937.979 L 1634.47 925.425 L 1637.54 913.004 L 1640.61 900.736 L 1643.68 888.641 L 1646.76 876.738 L 1649.83 865.046 L 1652.9 853.584 L 1655.97 842.37 L 1659.05 831.423 L 1662.12 820.76 L 1665.19 810.397 L 1668.26 800.352 L 1671.33 790.641 L 1674.41 781.279 L 1677.48 772.281 L 1680.55 763.662 L 1683.62 755.435 L 1686.69 747.615 L 1689.77 740.212 L 1692.84 733.239 L 1695.91 726.707 L 1698.98 720.628 L 1702.05 715.009 L 1705.13 709.861 L 1708.2 705.192 L 1711.27 701.009 L 1714.34 697.319 L 1717.41 694.128 L 1720.49 691.441 L 1723.56 689.262 L 1726.63 687.594 L 1729.7 686.441 L 1732.77 685.805 L 1735.85 685.685 L 1738.92 686.084 L 1741.99 686.999 L 1745.06 688.429 L 1748.14 690.372 L 1751.21 692.826 L 1754.28 695.785 L 1757.35 699.245 L 1760.42 703.202 L 1763.5 707.647 L 1766.57 712.576 L 1769.64 717.978 L 1772.71 723.846 L 1775.78 730.17 L 1778.86 736.941 L 1781.93 744.147 L 1785 751.776 L 1788.07 759.817 L 1791.14 768.257 L 1794.22 777.082 L 1797.29 786.278 L 1800.36 795.83 L 1803.43 805.723 L 1806.5 815.941 L 1809.58 826.468 L 1812.65 837.286 L 1815.72 848.379 L 1818.79 859.729 L 1821.86 871.317 L 1824.94 883.125 L 1828.01 895.134 L 1831.08 907.324 L 1834.15 919.677 L 1837.23 932.172 L 1840.3 944.79 L 1843.37 957.51 L 1846.44 970.311 L 1849.51 983.174 L 1852.59 996.077 L 1855.66 1009 L 1858.73 1021.92 L 1861.8 1034.82 L 1864.87 1047.68 L 1867.95 1060.48 L 1871.02 1073.19 L 1874.09 1085.8 L 1877.16 1098.28 L 1880.23 1110.63 L 1883.31 1122.8 L 1886.38 1134.8 L 1889.45 1146.59 L 1892.52 1158.16 L 1895.59 1169.49 L 1898.67 1180.56 L 1901.74 1191.36 L 1904.81 1201.86 L 1907.88 1212.05 L 1910.95 1221.92 L 1914.03 1231.45 L 1917.1 1240.61 L 1920.17 1249.41 L 1923.24 1257.82 L 1926.32 1265.83 L 1929.39 1273.43 L 1932.46 1280.6 L 1935.53 1287.34 L 1938.6 1293.62 L 1941.68 1299.46 L 1944.75 1304.82 L 1947.82 1309.71 L 1950.89 1314.12 L 1953.96 1318.04 L 1957.04 1321.46 L 1960.11 1324.38 L 1963.18 1326.8 L 1966.25 1328.7 L 1969.32 1330.09 L 1972.4 1330.97 L 1975.47 1331.32 L 1978.54 1331.16 L 1981.61 1330.49 L 1984.68 1329.29 L 1987.76 1327.59 L 1990.83 1325.37 L 1993.9 1322.64 L 1996.97 1319.41 L 2000.05 1315.68 L 2003.12 1311.46 L 2006.19 1306.76 L 2009.26 1301.57 L 2012.33 1295.92 L 2015.41 1289.8 L 2018.48 1283.24 L 2021.55 1276.23 L 2024.62 1268.79 L 2027.69 1260.94 L 2030.77 1252.68 L 2033.84 1244.04 L 2036.91 1235.01 L 2039.98 1225.62 L 2043.05 1215.88 L 2046.13 1205.81 L 2049.2 1195.43 L 2052.27 1184.74 L 2055.34 1173.77 L 2058.41 1162.54 L 2061.49 1151.06 L 2064.56 1139.35 L 2067.63 1127.43 L 2070.7 1115.32 L 2073.77 1103.04 L 2076.85 1090.61 L 2079.92 1078.04 L 2082.99 1065.37 L 2086.06 1052.6 L 2089.14 1039.77 L 2092.21 1026.88 L 2095.28 1013.96 L 2098.35 1001.04 L 2101.42 988.123 L 2104.5 975.243 L 2107.57 962.415 L 2110.64 949.662 L 2113.71 937.003 L 2116.78 924.458 L 2119.86 912.048 L 2122.93 899.793 L 2126 887.712 L 2129.07 875.825 L 2132.14 864.15 L 2135.22 852.706 L 2138.29 841.513 L 2141.36 830.587 L 2144.43 819.946 L 2147.5 809.608 L 2150.58 799.588 L 2153.65 789.903 L 2156.72 780.569 L 2159.79 771.6 L 2162.86 763.011 L 2165.94 754.815 L 2169.01 747.026 L 2172.08 739.656 L 2175.15 732.717 L 2178.23 726.22 L 2181.3 720.176 L 2184.37 714.594 L 2187.44 709.483 L 2190.51 704.851 L 2193.59 700.706 L 2196.66 697.054 L 2199.73 693.902 L 2202.8 691.254 L 2205.87 689.114 L 2208.95 687.487 L 2212.02 686.374 L 2215.09 685.777 L 2218.16 685.698 L 2221.23 686.136 L 2224.31 687.091 L 2227.38 688.561 L 2230.45 690.544 L 2233.52 693.037 L 2236.59 696.035 L 2239.67 699.534 L 2242.74 703.529 L 2245.81 708.012 L 2248.88 712.977 L 2251.95 718.416 L 2255.03 724.32 L 2258.1 730.679 L 2261.17 737.484 L 2264.24 744.723 L 2267.32 752.385 L 2270.39 760.457 L 2273.46 768.927 L 2276.53 777.781 L 2279.6 787.005 L 2282.68 796.584 L 2285.75 806.503 L 2288.82 816.745 L 2291.89 827.295 L 2294.96 838.135 L 2298.04 849.249 L 2301.11 860.618 L 2304.18 872.223 L 2307.25 884.048 L 2310.32 896.071 L 2313.4 908.275 L 2316.47 920.64 L 2319.54 933.145 L 2322.61 945.772 L 2325.68 958.498 L 2328.76 971.305 L 2331.83 984.172 L 2334.9 997.077 L 2337.97 1010 L 2341.04 1022.92 L 2344.12 1035.82 L 2347.19 1048.68 L 2350.26 1061.47 L 2353.33 1074.17 L 2356.41 1086.77 L 2359.48 1099.25 L 2362.55 1111.57 L 2365.62 1123.74 L 2368.69 1135.72 L 2371.77 1147.49 L 2374.84 1159.05 L 2377.91 1170.36 L 2380.98 1181.41 L 2384.05 1192.18 L 2387.13 1202.66 L 2390.2 1212.83 L 2393.27 1222.67 L 2396.34 1232.17 L 2399.41 1241.31 L 2402.49 1250.08 L 2405.56 1258.45 L 2408.63 1266.43 L 2411.7 1274 L 2414.77 1281.14 L 2417.85 1287.84 L 2420.92 1294.09 L 2423.99 1299.89 L 2427.06 1305.22 L 2430.14 1310.07 L 2433.21 1314.44 L 2436.28 1318.32 L 2439.35 1321.71 L 2442.42 1324.59 L 2445.5 1326.96 L 2448.57 1328.83 L 2451.64 1330.18 L 2454.71 1331.01 L 2457.78 1331.33 L 2460.86 1331.13 L 2463.93 1330.41 L 2467 1329.18 L 2470.07 1327.43 L 2473.14 1325.18 L 2476.22 1322.41 L 2479.29 1319.14 L 2482.36 1315.38 L 2485.43 1311.12 L 2488.5 1306.37 L 2491.58 1301.15 L 2494.65 1295.46 L 2497.72 1289.31 L 2500.79 1282.71 L 2503.86 1275.67 L 2506.94 1268.2 L 2510.01 1260.32 L 2513.08 1252.03 L 2516.15 1243.35 L 2519.23 1234.29 L 2522.3 1224.88 L 2525.37 1215.11 L 2528.44 1205.02 L 2531.51 1194.61 L 2534.59 1183.9 L 2537.66 1172.91 L 2540.73 1161.66 L 2543.8 1150.16 L 2546.87 1138.43 L 2549.95 1126.5 L 2553.02 1114.38 L 2556.09 1102.08 L 2559.16 1089.64 L 2562.23 1077.07 L 2565.31 1064.38 L 2568.38 1051.61 L 2571.45 1038.77 L 2574.52 1025.88 L 2577.59 1012.96 L 2580.67 1000.04 L 2583.74 987.124 L 2586.81 974.247 L 2589.88 961.425 L 2592.95 948.678 L 2596.03 936.027 L 2599.1 923.492 L 2602.17 911.093 L 2605.24 898.851 L 2608.32 886.784 L 2611.39 874.913 L 2614.46 863.255 L 2617.53 851.831 L 2620.6 840.657 L 2623.68 829.753 L 2626.75 819.135 L 2629.82 808.82 L 2632.89 798.826 L 2635.96 789.168 L 2639.04 779.861 L 2642.11 770.921 L 2645.18 762.362 L 2648.25 754.197 L 2651.32 746.44 L 2654.4 739.103 L 2657.47 732.198 L 2660.54 725.736 L 2663.61 719.727 L 2666.68 714.181 L 2669.76 709.107 L 2672.83 704.512 L 2675.9 700.405 L 2678.97 696.792 L 2682.04 693.679 L 2685.12 691.07 L 2688.19 688.97 L 2691.26 687.382 L 2694.33 686.309 L 2697.41 685.752 L 2700.48 685.713 L 2703.55 686.191 L 2706.62 687.186 L 2709.69 688.696 L 2712.77 690.719 L 2715.84 693.251 L 2718.91 696.288 L 2721.98 699.826 L 2725.05 703.858 L 2728.13 708.379 L 2731.2 713.381 L 2734.27 718.857 L 2737.34 724.796 L 2740.41 731.19 L 2743.49 738.029 L 2746.56 745.301 L 2749.63 752.995 L 2752.7 761.099 L 2755.77 769.599 L 2758.85 778.482 L 2761.92 787.734 L 2764.99 797.34 L 2768.06 807.285 L 2771.14 817.552 L 2774.21 828.125 L 2777.28 838.987 L 2780.35 850.12 L 2783.42 861.508 L 2786.5 873.132 L 2789.57 884.972 L 2792.64 897.01 L 2795.71 909.227 L 2798.78 921.604 L 2801.86 934.119 L 2804.93 946.754 L 2808 959.488 L 2811.07 972.3 L 2814.14 985.17 L 2817.22 998.078 L 2820.29 1011 L 2823.36 1023.92 L 2826.43 1036.82 L 2829.5 1049.67 L 2832.58 1062.45 L 2835.65 1075.15 L 2838.72 1087.74 L 2841.79 1100.21 L 2844.86 1112.52 L 2847.94 1124.67 L 2851.01 1136.64 L 2854.08 1148.4 L 2857.15 1159.93 L 2860.23 1171.22 L 2863.3 1182.25 L 2866.37 1193 L 2869.44 1203.46 L 2872.51 1213.6 L 2875.59 1223.42 L 2878.66 1232.89 L 2881.73 1242 L 2884.8 1250.74 L 2887.87 1259.09 L 2890.95 1267.03 L 2894.02 1274.57 L 2897.09 1281.67 L 2900.16 1288.34 L 2903.23 1294.56 L 2906.31 1300.32 L 2909.38 1305.61 L 2912.45 1310.43 L 2915.52 1314.76 L 2918.59 1318.6 L 2921.67 1321.95 L 2924.74 1324.79 L 2927.81 1327.12 L 2930.88 1328.95 L 2933.95 1330.26 L 2937.03 1331.06 L 2940.1 1331.33 L 2943.17 1331.09 L 2946.24 1330.34 L 2949.32 1329.06 L 2952.39 1327.28 L 2955.46 1324.98 L 2958.53 1322.18 L 2961.6 1318.87 L 2964.68 1315.06 L 2967.75 1310.77 L 2970.82 1305.99 L 2973.89 1300.73 L 2976.96 1295 L 2980.04 1288.82 L 2983.11 1282.18 L 2986.18 1275.11 L 2989.25 1267.61 L 2992.32 1259.69 L 2995.4 1251.37 L 2998.47 1242.66 L 3001.54 1233.58 L 3004.61 1224.13 L 3007.68 1214.34 L 3010.76 1204.22 L 3013.83 1193.79 L 3016.9 1183.06 L 3019.97 1172.05 L 3023.04 1160.78 L 3026.12 1149.26 L 3029.19 1137.52 L 3032.26 1125.57 L 3035.33 1113.43 L 3038.41 1101.12 L 3041.48 1088.67 L 3044.55 1076.09 L 3047.62 1063.4 L 3050.69 1050.62 L 3053.77 1037.77 L 3056.84 1024.88 L 3059.91 1011.96 L 3062.98 999.035 L 3066.05 986.126 L 3069.13 973.252 L 3072.2 960.435 L 3075.27 947.694 L 3078.34 935.052 L 3081.41 922.527 L 3084.49 910.14 L 3087.56 897.91 L 3090.63 885.858 L 3093.7 874.002 L 3096.77 862.361 L 3099.85 850.956 L 3102.92 839.802 L 3105.99 828.92 L 3109.06 818.325 L 3112.13 808.035 L 3115.21 798.066 L 3118.28 788.434 L 3121.35 779.155 L 3124.42 770.245 L 3127.5 761.715 L 3130.57 753.582 L 3133.64 745.857 L 3136.71 738.553 L 3139.78 731.682 L 3142.86 725.254 L 3145.93 719.281 L 3149 713.771" stroke="rgb(41,128,185)" stroke-width="8" stroke-linecap="round" stroke-linejoin="round" fill="none" />
</svg>
